<svg width="72" height="72" viewBox="0 0 72 72" fill="none" xmlns="http://www.w3.org/2000/svg">
<g clip-path="url(#clip0_870_3768)">
<mask id="mask0_870_3768" style="mask-type:alpha" maskUnits="userSpaceOnUse" x="3" y="0" width="66" height="72">
<rect x="3.59961" width="64.8001" height="72.0001" fill="#D9D9D9"/>
</mask>
<g mask="url(#mask0_870_3768)">
<path d="M56.0851 64.8724C54.602 65.2928 52.7795 65.483 51.6562 65.0187C50.4938 64.5396 49.0554 62.925 47.9619 60.5498C53.1981 59.6465 57.8516 58.2612 60.803 56.2085C60.9736 56.9328 63.3125 59.5532 63.1158 60.5898C61.9151 61.8082 58.9563 64.0595 56.0851 64.8724Z" fill="#FFC19F"/>
<path d="M46.7609 53.6189C48.8733 54.8829 52.3494 57.5061 54.1076 58.9259C52.9274 61.1939 50.2725 65.2406 49.3077 66.3648C45.6786 64.5741 41.8314 62.7656 40.627 61.4605C40.1656 60.9627 37.9731 55.9382 39.362 54.6368C41.5471 52.5925 44.7464 52.4117 46.7609 53.6189Z" fill="#FF4D80"/>
<path d="M58.7011 54.4853C58.4448 56.2285 58.5473 57.9941 59.0684 58.8834C59.9149 60.3274 61.1193 61.2839 62.7888 60.9623C64.01 60.7264 65.6842 59.5723 67.3221 57.2195C66.403 56.3264 63.6558 53.2753 61.7876 52.2686C61.5807 53.4552 59.3816 54.2197 58.7011 54.4853Z" fill="#FFC19F"/>
<path opacity="0.2" d="M61.5264 58.4416C62.9881 59.7281 65.6281 59.1026 66.6992 57.4899C66.2779 57.2652 64.4778 53.7377 62.9191 53.13C61.2235 53.0013 61.1424 55.1994 60.6045 54.9944C61.1358 55.6823 62.1631 57.1142 61.5264 58.4416Z" fill="#6D261D"/>
<path d="M62.9411 53.9326C62.2773 54.9879 62.1319 56.0767 62.6157 56.3564C63.0995 56.636 64.0299 56.017 64.6936 54.9627C65.3573 53.9084 65.5046 52.8187 65.0199 52.539C64.5351 52.2593 63.6057 52.883 62.9411 53.9326Z" fill="#FFC19F"/>
<path d="M61.2673 53.0195C60.7453 54.1382 60.7499 55.2186 61.2785 55.4218C61.8071 55.625 62.6581 54.8793 63.1802 53.756C63.7022 52.6327 63.6976 51.5569 63.169 51.3537C62.6404 51.1505 61.7893 51.8962 61.2673 53.0195Z" fill="#FFC19F"/>
<path d="M64.6346 54.7494C63.7761 55.662 63.4312 56.7322 63.8628 57.1405C64.2944 57.5488 65.3412 57.1405 66.1998 56.2251C67.0583 55.3097 67.4033 54.2413 66.9717 53.834C66.54 53.4266 65.4932 53.8386 64.6346 54.7494Z" fill="#FFC19F"/>
<path d="M65.6045 56.1572C64.7236 56.8507 64.2724 57.7885 64.5959 58.2518C64.9194 58.7151 65.901 58.5315 66.7763 57.8351C67.6516 57.1388 68.1084 56.2038 67.785 55.7405C67.4615 55.2772 66.4845 55.4636 65.6045 56.1572Z" fill="#FFC19F"/>
<path opacity="0.21" d="M62.9461 52.6485C63.29 53.2433 63.3059 53.9219 61.7911 54.7823C60.8244 55.3314 59.5538 55.3631 59.2396 54.7534C58.9255 54.1438 60.4273 52.972 61.4685 52.3633C62.5098 51.7545 62.7251 52.2654 62.9461 52.6485Z" fill="#541000"/>
<path d="M62.4033 52.2212C63.4856 53.4536 61.72 54.6086 60.6209 55.2518C59.5219 55.895 58.585 55.7291 58.64 55.0654C58.7053 54.2721 58.7099 53.5039 59.8724 52.9866C61.019 52.4738 62.1087 51.8866 62.4033 52.2212Z" fill="#FFC19F"/>
<path d="M16.3733 64.8724C17.8564 65.2928 19.6789 65.483 20.8022 65.0187C21.9646 64.5396 23.403 62.925 24.4965 60.5498C19.2603 59.6465 14.6077 58.2612 11.6536 56.2085C11.4821 56.9328 9.14316 59.5532 9.33986 60.5898C10.5433 61.8082 13.5021 64.0595 16.3733 64.8724Z" fill="#FFC19F"/>
<path d="M25.6973 53.619C23.5775 54.871 20.1097 57.5063 18.3516 58.926C19.5308 61.1941 22.1857 65.2408 23.1505 66.365C26.7861 64.5742 30.6277 62.763 31.8312 61.4644C32.2926 60.9666 34.4833 56.2292 33.0943 54.9278C30.9092 52.8845 27.5235 52.5405 25.6973 53.619Z" fill="#FF4D80"/>
<path d="M44.8935 52.9584C40.2819 52.1605 31.5332 51.9479 27.1304 53.116C25.9987 62.6664 25.019 71.251 24.9248 73.7782C26.737 74.7514 30.477 75.9717 35.4344 75.9167C40.5858 75.8598 45.0995 75.5242 47.7665 73.74C47.6807 71.5064 45.6961 55.1239 44.8935 52.9584Z" fill="#FF4D80"/>
<path d="M13.7567 54.4853C14.0131 56.2285 13.9105 57.9941 13.3894 58.8834C12.543 60.3274 11.3386 61.2839 9.66903 60.9623C8.44785 60.7264 6.77362 59.5723 5.13574 57.2195C6.05489 56.3264 8.80208 53.2753 10.6702 52.2686C10.8772 53.4552 13.079 54.2197 13.7567 54.4853Z" fill="#FFC19F"/>
<path opacity="0.2" d="M10.9335 58.4416C9.4709 59.7281 6.83184 59.1026 5.76074 57.4899C6.1821 57.2652 7.98218 53.7377 9.54081 53.13C11.2365 53.0013 11.312 55.1994 11.8555 54.9944C11.3232 55.6823 10.2959 57.1142 10.9335 58.4416Z" fill="#6D261D"/>
<path d="M9.51647 53.9326C10.1802 54.9879 10.3266 56.0767 9.84274 56.3564C9.35893 56.636 8.42766 56.017 7.76393 54.9627C7.10021 53.9084 6.95385 52.8187 7.43766 52.539C7.92148 52.2593 8.85647 52.883 9.51647 53.9326Z" fill="#FFC19F"/>
<path d="M11.187 53.0195C11.709 54.1382 11.7044 55.2186 11.1758 55.4218C10.6473 55.625 9.79617 54.8793 9.27414 53.756C8.75211 52.6327 8.75677 51.5569 9.28533 51.3537C9.81389 51.1505 10.6687 51.8962 11.187 53.0195Z" fill="#FFC19F"/>
<path d="M7.82348 54.7495C8.68204 55.6621 9.02789 56.7323 8.59534 57.1406C8.1628 57.5489 7.11688 57.1406 6.25832 56.2252C5.39976 55.3098 5.05485 54.2443 5.48739 53.8369C5.91993 53.4295 6.96586 53.8388 7.82348 54.7495Z" fill="#FFC19F"/>
<path d="M6.85429 56.1572C7.73522 56.8507 8.18547 57.7885 7.862 58.2518C7.53852 58.7151 6.56158 58.5315 5.68158 57.8351C4.80158 57.1388 4.34947 56.2038 4.67294 55.7405C4.99641 55.2772 5.97336 55.4636 6.85429 56.1572Z" fill="#FFC19F"/>
<path opacity="0.21" d="M9.50906 52.6485C9.16601 53.2433 9.14923 53.9219 10.6641 54.7823C11.6307 55.3314 12.9013 55.3631 13.2164 54.7534C13.5315 54.1438 12.0279 52.972 10.9866 52.3633C9.94533 51.7545 9.73279 52.2654 9.50906 52.6485Z" fill="#541000"/>
<path d="M10.0546 52.2212C8.97326 53.4536 10.7379 54.6086 11.8398 55.2518C12.9416 55.895 13.8757 55.7291 13.8207 55.0654C13.7564 54.2721 13.7517 53.5039 12.5883 52.9866C11.4389 52.4738 10.3483 51.8866 10.0546 52.2212Z" fill="#FFC19F"/>
<path d="M42.8278 52.9242L42.7234 52.6333L42.2573 52.6072C38.6348 52.4031 33.6811 52.1178 29.7826 52.6072L29.6568 52.6231L29.5924 52.7275C29.5174 52.8621 29.4716 53.0111 29.4582 53.1647C29.365 55.9137 32.3107 58.2545 36.0274 58.385C36.1318 58.385 36.2372 58.3915 36.3416 58.3915C39.9212 58.3915 42.8604 56.3024 42.9602 53.6373C42.9718 53.3925 42.9265 53.1484 42.8278 52.9242Z" fill="white"/>
<path d="M42.101 53.2949C42.1122 52.9789 42.0311 52.8391 41.9518 52.6014C38.7031 52.4149 33.9974 52.1176 30.3832 52.5799C30.3348 52.6721 30.3032 52.7722 30.29 52.8755C30.208 55.3215 32.7762 57.3985 36.0379 57.515C39.2997 57.6315 42.0143 55.742 42.101 53.2949Z" fill="#FFC19F"/>
<path d="M40.5782 46.3467V53.6896C40.5903 55.2744 38.6131 56.5794 36.126 56.5981C33.6389 56.6167 31.5824 55.3471 31.5703 53.7605V46.3467H40.5782Z" fill="#FFC19F"/>
<path opacity="0.19" d="M31.5605 52.4676C32.0266 54.2798 34.7216 54.7133 36.49 54.3264C38.0126 54.0052 39.4232 53.287 40.5786 52.2448V47.4775C40.5786 47.4775 33.3075 48.4097 31.5605 48.9252V52.4676Z" fill="#7F1703"/>
<path d="M59.389 38.1779C58.3188 42.8389 54.0661 44.8049 51.8176 44.0284C49.8665 43.3544 50.2273 39.7244 50.8705 37.2233C51.4951 34.7996 52.4767 32.3712 54.9554 31.8883C57.8667 31.3225 60.227 34.533 59.389 38.1779Z" fill="#FFC19F"/>
<path d="M56.2868 38.6026C55.9065 40.7383 53.7699 42.1254 52.4536 41.7721C51.7712 41.5903 51.9745 40.4465 52.2019 38.8394C52.4573 37.0347 52.8992 35.6103 54.1521 35.3763C55.5066 35.1265 56.6066 36.81 56.2868 38.6026Z" fill="#E0956C"/>
<path d="M12.4658 38.1779C13.536 42.8389 17.7887 44.8049 20.0371 44.0284C21.9882 43.3544 21.6275 39.7244 20.9843 37.2233C20.3597 34.7996 19.3772 32.3712 16.8994 31.8883C13.9881 31.3225 11.6287 34.533 12.4658 38.1779Z" fill="#FFC19F"/>
<path d="M15.5685 38.6026C15.9488 40.7383 18.0854 42.1254 19.4017 41.7721C20.0841 41.5903 19.8809 40.4465 19.6534 38.8394C19.398 37.0347 18.9561 35.6103 17.7032 35.3763C16.3487 35.1265 15.2487 36.81 15.5685 38.6026Z" fill="#E0956C"/>
<path d="M53.855 20.1334C52.0083 13.9082 43.1682 10.2624 36.036 10.2754H35.9838C28.8515 10.2633 20.0114 13.911 18.1648 20.1344C16.6462 25.2559 17.6791 39.7973 20.5819 44.7267C22.4976 47.9801 28.6977 52.5712 36.0108 52.8126C43.3239 52.5712 49.5277 47.9801 51.4387 44.7267C54.3406 39.7963 55.3735 25.2549 53.855 20.1334Z" fill="#FFC19F"/>
<path d="M34.5244 38.0573C34.5676 38.0556 34.6089 38.039 34.6412 38.0103C34.6735 37.9816 34.6948 37.9425 34.7015 37.8998C34.7384 37.5959 34.8878 37.3169 35.1202 37.1178C35.3527 36.9187 35.6513 36.8138 35.9572 36.824C36.6218 36.824 37.129 37.2472 37.2184 37.8858C37.2256 37.9333 37.2509 37.9762 37.2889 38.0055C37.3269 38.0349 37.3748 38.0484 37.4226 38.0433C37.4707 38.0349 37.5136 38.0079 37.542 37.9681C37.5704 37.9284 37.5821 37.879 37.5745 37.8308C37.5146 37.4449 37.3184 37.0932 37.0214 36.8396C36.7245 36.586 36.3465 36.4471 35.956 36.4482C35.5655 36.4494 35.1883 36.5904 34.8928 36.8457C34.5973 37.1011 34.4031 37.4539 34.3454 37.8401C34.3372 37.8882 34.3483 37.9377 34.3762 37.9778C34.4041 38.0179 34.4466 38.0454 34.4946 38.0545L34.5244 38.0573Z" fill="#C4735B"/>
<path d="M50.1201 25.8511C49.9963 25.8235 49.8874 25.7503 49.8152 25.646C48.8355 24.2533 45.6819 23.227 43.4362 23.5561C43.3689 23.5651 43.3006 23.5607 43.235 23.5431C43.1695 23.5256 43.108 23.4952 43.0543 23.4537C43.0006 23.4123 42.9556 23.3606 42.9219 23.3017C42.8883 23.2428 42.8666 23.1778 42.8582 23.1105C42.8401 22.9741 42.8746 22.8359 42.9545 22.7239C43.0345 22.6119 43.154 22.5345 43.2889 22.5073C45.7685 21.948 49.433 23.3025 50.6384 25.0187C50.7178 25.1328 50.7506 25.2731 50.7297 25.4106C50.7089 25.5481 50.6362 25.6724 50.5265 25.7579C50.4697 25.8022 50.4039 25.8336 50.3336 25.8497C50.2634 25.8658 50.1905 25.8663 50.1201 25.8511Z" fill="#772400"/>
<path d="M21.6748 25.8511C21.7987 25.8237 21.9076 25.7504 21.9796 25.646C22.9594 24.2533 26.1121 23.227 28.3587 23.5561C28.4259 23.5651 28.4943 23.5607 28.5599 23.5431C28.6254 23.5256 28.6868 23.4952 28.7406 23.4537C28.7943 23.4123 28.8393 23.3606 28.873 23.3017C28.9066 23.2428 28.9283 23.1778 28.9367 23.1105C28.9547 22.9741 28.9203 22.8359 28.8404 22.7239C28.7604 22.6119 28.6409 22.5345 28.506 22.5073C26.0263 21.948 22.3619 23.3025 21.1565 25.0187C21.0767 25.1329 21.0439 25.2733 21.0647 25.4111C21.0855 25.5488 21.1584 25.6733 21.2684 25.7588C21.3252 25.803 21.3911 25.8342 21.4613 25.8501C21.5316 25.8661 21.6044 25.8664 21.6748 25.8511Z" fill="#772400"/>
<path d="M45.6124 40.2722C45.6693 41.018 46.8709 41.5288 48.2972 41.4198C49.7234 41.3107 50.8337 40.6199 50.7768 39.877C50.72 39.134 49.5184 38.6204 48.0912 38.7294C46.664 38.8385 45.5556 39.5293 45.6124 40.2722Z" fill="#FF8A8A"/>
<path d="M31.2583 31.7673C32.6388 33.8181 32.4412 36.0638 31.2061 36.9065C29.3417 38.1771 24.9696 38.5071 23.3597 36.6343C21.7992 34.8193 22.5972 31.5436 25.1868 30.1537C27.4539 28.9362 29.9243 29.7817 31.2583 31.7673Z" fill="#F9FEFF"/>
<path d="M23.124 31.1246C25.1618 27.9803 29.9738 29.0934 31.304 31.834C29.9253 29.7832 27.344 29.14 25.2447 30.2642C24.6088 30.6024 24.056 31.0778 23.6263 31.656C23.1966 32.2341 22.9009 32.9006 22.7604 33.6071C22.5535 34.7257 22.7968 35.9758 23.4456 36.729C22.6989 36.2349 21.6278 33.4365 23.124 31.1246Z" fill="#723C27"/>
<path d="M30.4597 33.1211C30.66 33.6287 30.7054 34.1843 30.59 34.7177C30.4747 35.251 30.2037 35.7382 29.8115 36.1176C29.4193 36.497 28.9234 36.7516 28.3864 36.8492C27.8495 36.9467 27.2957 36.8829 26.7951 36.6658C26.2945 36.4486 25.8695 36.0879 25.5738 35.6292C25.2782 35.1705 25.1252 34.6345 25.1342 34.0889C25.1432 33.5432 25.3137 33.0125 25.6243 32.5638C25.9349 32.1151 26.3716 31.7686 26.8791 31.5681C27.2162 31.4349 27.5762 31.3694 27.9386 31.3754C28.3009 31.3813 28.6586 31.4586 28.9911 31.6029C29.3236 31.7471 29.6244 31.9554 29.8764 32.2159C30.1284 32.4764 30.3266 32.784 30.4597 33.1211Z" fill="#752912"/>
<path d="M26.9568 32.8779C27.0123 33.0187 27.0249 33.1728 26.9929 33.3207C26.9609 33.4686 26.8857 33.6037 26.777 33.7089C26.6682 33.8141 26.5307 33.8847 26.3818 33.9118C26.2329 33.9389 26.0793 33.9212 25.9405 33.8611C25.8016 33.8009 25.6837 33.7009 25.6017 33.5737C25.5197 33.4466 25.4772 33.2979 25.4796 33.1466C25.482 32.9953 25.5292 32.8481 25.6153 32.7236C25.7013 32.5992 25.8223 32.503 25.963 32.4473C26.1519 32.373 26.3626 32.3766 26.5489 32.4573C26.7351 32.538 26.8818 32.6893 26.9568 32.8779Z" fill="#FEFFFE"/>
<path d="M41.1113 31.7673C39.7307 33.8181 39.9284 36.0638 41.1635 36.9065C43.0279 38.1771 47.4 38.5071 49.0099 36.6343C50.5704 34.8193 49.7715 31.5436 47.1828 30.1537C44.9128 28.9362 42.4444 29.7817 41.1113 31.7673Z" fill="#F9FEFF"/>
<path d="M49.2426 31.1246C47.2048 27.9803 42.3937 29.0934 41.0625 31.834C42.4412 29.7832 45.0225 29.14 47.1218 30.2642C47.7578 30.6024 48.3106 31.0778 48.7402 31.656C49.1699 32.2341 49.4657 32.9006 49.6061 33.6071C49.8131 34.7257 49.5688 35.9758 48.9219 36.729C49.6676 36.2349 50.7415 33.4365 49.2426 31.1246Z" fill="#723C27"/>
<path d="M41.9073 33.1243C41.7077 33.6319 41.6629 34.1872 41.7787 34.7202C41.8945 35.2531 42.1657 35.7398 42.5579 36.1188C42.9502 36.4977 43.4459 36.7519 43.9826 36.8493C44.5192 36.9467 45.0727 36.8828 45.573 36.6658C46.0734 36.4488 46.4982 36.0884 46.7939 35.63C47.0895 35.1717 47.2427 34.6361 47.2341 34.0907C47.2255 33.5454 47.0555 33.0149 46.7455 32.5661C46.4355 32.1173 45.9995 31.7705 45.4925 31.5694C45.1551 31.4356 44.7945 31.3696 44.4316 31.3753C44.0686 31.3811 43.7103 31.4584 43.3772 31.6028C43.0442 31.7473 42.7429 31.956 42.4907 32.2171C42.2384 32.4782 42.0402 32.7865 41.9073 33.1243Z" fill="#752912"/>
<path d="M42.1296 32.8763C42.074 33.017 42.0615 33.1711 42.0935 33.319C42.1255 33.4669 42.2006 33.602 42.3094 33.7072C42.4181 33.8124 42.5557 33.883 42.7045 33.9101C42.8534 33.9372 43.007 33.9195 43.1458 33.8594C43.2847 33.7992 43.4026 33.6992 43.4846 33.572C43.5667 33.4449 43.6092 33.2963 43.6067 33.1449C43.6043 32.9936 43.5571 32.8464 43.4711 32.722C43.385 32.5975 43.264 32.5013 43.1233 32.4456C42.9344 32.371 42.7236 32.3745 42.5373 32.4553C42.351 32.536 42.2043 32.6874 42.1296 32.8763Z" fill="#FEFFFE"/>
<path d="M26.4018 40.2722C26.345 41.018 25.1424 41.5288 23.7171 41.4198C22.2918 41.3107 21.1806 40.6199 21.2374 39.877C21.2943 39.134 22.4959 38.6204 23.9222 38.7294C25.3484 38.8385 26.4587 39.5293 26.4018 40.2722Z" fill="#FF8A8A"/>
<path d="M35.3631 8.16211H35.3314C22.9397 8.92838 18.0764 14.2988 16.4078 18.6251C14.9834 22.312 14.961 26.2412 15.8746 31.8381C16.4304 31.8304 16.9667 32.0433 17.3661 32.4301C18.22 33.2159 18.7569 34.4921 18.9508 34.9423C19.0273 33.4937 18.4512 30.7092 18.344 29.0042C18.179 26.382 18.1957 23.2535 20.1524 20.0132C22.5901 15.9702 26.2332 13.4626 35.3631 13.4626V8.16211Z" fill="#93453B"/>
<path d="M36.335 8.16211H36.3629C48.7547 8.92838 53.618 14.2988 55.2866 18.6251C56.7101 22.312 56.6383 26.189 55.79 31.8502C55.1719 31.8502 54.8727 32.0162 54.5203 32.4254C53.9946 33.0351 53.5639 34.0335 53.2618 34.3551C53.2842 33.4779 53.3262 32.5485 53.3625 31.6013C53.4082 28.5372 53.6021 23.7075 51.5513 20.0122C49.1947 15.7735 45.4668 13.4626 36.3368 13.4626L36.335 8.16211Z" fill="#93453B"/>
<path d="M35.9418 40.4655C35.9233 40.4679 35.9045 40.4679 35.8859 40.4655C32.131 40.3154 29.2114 39.606 29.0874 42.1733C28.9345 45.3129 32.0835 47.7329 35.8402 47.6733H36.0462C39.803 47.7329 42.9511 45.3129 42.7991 42.1733C42.6742 39.606 39.6967 40.3154 35.9418 40.4655Z" fill="#701608"/>
<path d="M40.5013 46.3778C39.7611 45.2265 38.0039 44.4155 35.9512 44.4155C33.8985 44.4155 32.1339 45.2293 31.3965 46.3853C32.7099 47.2619 34.2617 47.7121 35.8403 47.6745H36.0463C37.6296 47.713 39.186 47.26 40.5013 46.3778Z" fill="#EA7063"/>
<path d="M16.6465 21.9739C18.3114 13.6718 25.8566 7.68145 36.329 7.61806C44.9238 7.56492 52.5586 13.0584 54.973 22.0084C51.164 14.8482 44.3841 10.0315 35.6568 10.2627C27.6632 10.4641 20.3305 14.246 16.6465 21.9739Z" fill="#F73967"/>
<path d="M45.8911 9.70503C45.6525 10.7193 45.081 10.9887 44.3166 10.9588C44.9048 9.07206 43.651 6.81148 40.7873 6.99046C41.5955 7.8052 41.7904 8.76164 39.9185 9.23706C38.5883 9.57732 37.3438 9.28647 34.6329 9.31723C30.919 9.35732 27.1073 10.5934 24.609 13.3341C24.434 13.8636 24.4214 14.4333 24.5726 14.9701C24.9213 16.332 27.0579 17.3761 28.3611 17.3537C27.0728 16.6732 26.2795 15.2423 26.3839 14.1656C27.7822 16.5492 35.7245 18.862 42.3105 16.9324C40.2849 16.8643 38.8166 15.672 38.5752 15.1118C43.7396 16.0887 46.6863 12.6582 45.8911 9.70503Z" fill="#93453B"/>
<path d="M24.6053 12.079C23.9611 15.833 15.7634 17.9519 12.084 11.2867C18.6644 7.35093 21.7686 9.04474 24.6053 12.079Z" fill="#FF4D80"/>
<g opacity="0.35">
<path d="M23.9472 12.0462C23.7076 11.2156 20.8952 10.3924 18.5283 12.461C20.293 15.0562 24.4413 13.7596 23.9472 12.0462Z" fill="#890000"/>
</g>
<path d="M23.9497 10.8855C27.5853 14.1165 34.8872 10.3262 29.6212 1.80029C25.4263 6.55451 23.2123 7.62841 23.9497 10.8855Z" fill="#FF4D80"/>
<g opacity="0.35">
<path d="M24.9897 10.9512C24.8368 9.57904 27.5011 9.10082 28.6756 7.1665C29.042 8.64124 27.1282 12.7159 24.9897 10.9512Z" fill="#890000"/>
</g>
<path d="M25.5796 13.1141C24.791 13.6156 23.704 13.364 23.1559 12.5548C22.6078 11.7457 22.797 10.6783 23.5847 10.1777C24.3724 9.67711 25.4594 9.92787 26.0084 10.737C26.5575 11.5462 26.3683 12.6135 25.5796 13.1141Z" fill="#FF4D80"/>
<path d="M37.0088 61.1333C37.0088 61.3219 36.9529 61.5063 36.8481 61.6631C36.7433 61.82 36.5944 61.9422 36.4201 62.0144C36.2459 62.0866 36.0541 62.1054 35.8692 62.0686C35.6842 62.0319 35.5142 61.941 35.3809 61.8077C35.2475 61.6743 35.1567 61.5044 35.1199 61.3194C35.0831 61.1344 35.102 60.9426 35.1742 60.7684C35.2463 60.5941 35.3686 60.4452 35.5254 60.3404C35.6822 60.2356 35.8666 60.1797 36.0552 60.1797C36.3081 60.1797 36.5507 60.2802 36.7295 60.459C36.9084 60.6378 37.0088 60.8804 37.0088 61.1333Z" fill="white"/>
<path d="M37.0088 65.336C37.0088 65.5246 36.9529 65.709 36.8481 65.8658C36.7433 66.0226 36.5944 66.1448 36.4201 66.217C36.2459 66.2892 36.0541 66.3081 35.8692 66.2713C35.6842 66.2345 35.5142 66.1437 35.3809 66.0103C35.2475 65.8769 35.1567 65.707 35.1199 65.522C35.0831 65.337 35.102 65.1453 35.1742 64.971C35.2463 64.7968 35.3686 64.6478 35.5254 64.543C35.6822 64.4383 35.8666 64.3823 36.0552 64.3823C36.3081 64.3823 36.5507 64.4828 36.7295 64.6616C36.9084 64.8405 37.0088 65.083 37.0088 65.336Z" fill="white"/>
</g>
</g>
<defs>
<clipPath id="clip0_870_3768">
<rect width="72" height="72" fill="white"/>
</clipPath>
</defs>
</svg>
