<svg width="213" height="74" viewBox="0 0 213 74" fill="none" xmlns="http://www.w3.org/2000/svg">
<path d="M6.45352 73.8C4.38685 73.8 2.78685 73.2333 1.65352 72.1C0.58685 70.9 0.0535163 69.2667 0.0535163 67.2V8.2C0.0535163 6.06667 0.58685 4.46666 1.65352 3.4C2.78685 2.26666 4.38685 1.69999 6.45352 1.69999C8.52018 1.69999 10.0868 2.26666 11.1535 3.4C12.2869 4.46666 12.8535 6.06667 12.8535 8.2V33.7H13.0535L41.7535 4.89999C42.8202 3.83333 43.8869 3.03333 44.9535 2.5C46.0202 1.96666 47.2202 1.69999 48.5535 1.69999C50.4869 1.69999 51.8535 2.2 52.6535 3.2C53.5202 4.2 53.8535 5.36666 53.6535 6.7C53.5202 8.03333 52.8869 9.26666 51.7535 10.4L22.5535 39.3L22.6535 33.5L53.1535 64.5C54.5535 65.8333 55.2869 67.2333 55.3535 68.7C55.4202 70.1667 54.9535 71.4 53.9535 72.4C53.0202 73.3333 51.6202 73.8 49.7535 73.8C48.1535 73.8 46.8535 73.4667 45.8535 72.8C44.9202 72.1333 43.8202 71.1667 42.5535 69.9L13.0535 40.4H12.8535V67.2C12.8535 69.2667 12.3202 70.9 11.2535 72.1C10.1868 73.2333 8.58685 73.8 6.45352 73.8Z" fill="#CA5EFE"/>
<path d="M89.4574 74C83.9241 74 79.1574 72.9667 75.1574 70.9C71.1574 68.8333 68.0574 65.9 65.8574 62.1C63.7241 58.3 62.6574 53.8 62.6574 48.6C62.6574 43.5333 63.6908 39.1 65.7574 35.3C67.8908 31.5 70.7908 28.5333 74.4574 26.4C78.1908 24.2 82.4241 23.1 87.1574 23.1C90.6241 23.1 93.7241 23.6667 96.4574 24.8C99.2574 25.9333 101.624 27.5667 103.557 29.7C105.557 31.8333 107.057 34.4333 108.057 37.5C109.124 40.5 109.657 43.9 109.657 47.7C109.657 48.9 109.224 49.8333 108.357 50.5C107.557 51.1 106.391 51.4 104.857 51.4H72.7574V44.2H100.857L99.2574 45.7C99.2574 42.6333 98.7908 40.0667 97.8574 38C96.9908 35.9333 95.6908 34.3667 93.9574 33.3C92.2908 32.1667 90.1908 31.6 87.6574 31.6C84.8574 31.6 82.4574 32.2667 80.4574 33.6C78.5241 34.8667 77.0241 36.7 75.9574 39.1C74.9574 41.4333 74.4574 44.2333 74.4574 47.5V48.2C74.4574 53.6667 75.7241 57.7667 78.2574 60.5C80.8574 63.1667 84.6574 64.5 89.6574 64.5C91.3908 64.5 93.3241 64.3 95.4574 63.9C97.6574 63.4333 99.7241 62.6667 101.657 61.6C103.057 60.8 104.291 60.4667 105.357 60.6C106.424 60.6667 107.257 61.0333 107.857 61.7C108.524 62.3667 108.924 63.2 109.057 64.2C109.191 65.1333 108.991 66.1 108.457 67.1C107.991 68.1 107.157 68.9667 105.957 69.7C103.624 71.1667 100.924 72.2667 97.8574 73C94.8574 73.6667 92.0574 74 89.4574 74Z" fill="#3CF37F"/>
<path d="M125.757 73.7C123.757 73.7 122.223 73.1 121.157 71.9C120.09 70.7 119.557 69.0333 119.557 66.9V30.2C119.557 28 120.09 26.3333 121.157 25.2C122.223 24 123.757 23.4 125.757 23.4C127.757 23.4 129.29 24 130.357 25.2C131.49 26.3333 132.057 28 132.057 30.2V66.9C132.057 69.0333 131.523 70.7 130.457 71.9C129.39 73.1 127.823 73.7 125.757 73.7ZM125.757 14.1C123.423 14.1 121.59 13.5333 120.257 12.4C118.99 11.2 118.357 9.56666 118.357 7.5C118.357 5.36666 118.99 3.73333 120.257 2.59999C121.59 1.46666 123.423 0.899998 125.757 0.899998C128.157 0.899998 129.99 1.46666 131.257 2.59999C132.523 3.73333 133.157 5.36666 133.157 7.5C133.157 9.56666 132.523 11.2 131.257 12.4C129.99 13.5333 128.157 14.1 125.757 14.1Z" fill="#FFD20F"/>
<path d="M151.245 73.8C149.245 73.8 147.712 73.2667 146.645 72.2C145.578 71.0667 145.045 69.4667 145.045 67.4V8C145.045 5.93333 145.578 4.36666 146.645 3.3C147.712 2.23333 149.245 1.69999 151.245 1.69999C153.245 1.69999 154.778 2.23333 155.845 3.3C156.978 4.36666 157.545 5.93333 157.545 8V44.9H157.745L174.245 27.5C175.578 26.1667 176.745 25.1333 177.745 24.4C178.745 23.6667 180.112 23.3 181.845 23.3C183.578 23.3 184.878 23.7667 185.745 24.7C186.678 25.5667 187.145 26.6333 187.145 27.9C187.145 29.1667 186.545 30.4333 185.345 31.7L167.945 50.1V44.9L187.045 65.5C188.245 66.7667 188.778 68.0667 188.645 69.4C188.578 70.6667 188.045 71.7333 187.045 72.6C186.045 73.4 184.778 73.8 183.245 73.8C181.378 73.8 179.878 73.4333 178.745 72.7C177.678 71.9667 176.478 70.8667 175.145 69.4L157.745 51.2H157.545V67.4C157.545 71.6667 155.445 73.8 151.245 73.8Z" fill="#EF49BF"/>
<path d="M204.858 73.7C202.858 73.7 201.325 73.1 200.258 71.9C199.192 70.7 198.658 69.0333 198.658 66.9V30.2C198.658 28 199.192 26.3333 200.258 25.2C201.325 24 202.858 23.4 204.858 23.4C206.858 23.4 208.392 24 209.458 25.2C210.592 26.3333 211.158 28 211.158 30.2V66.9C211.158 69.0333 210.625 70.7 209.558 71.9C208.492 73.1 206.925 73.7 204.858 73.7ZM204.858 14.1C202.525 14.1 200.692 13.5333 199.358 12.4C198.092 11.2 197.458 9.56666 197.458 7.5C197.458 5.36666 198.092 3.73333 199.358 2.59999C200.692 1.46666 202.525 0.899998 204.858 0.899998C207.258 0.899998 209.092 1.46666 210.358 2.59999C211.625 3.73333 212.258 5.36666 212.258 7.5C212.258 9.56666 211.625 11.2 210.358 12.4C209.092 13.5333 207.258 14.1 204.858 14.1Z" fill="#26E3EA"/>
</svg>
