<svg width="72" height="72" viewBox="0 0 72 72" fill="none" xmlns="http://www.w3.org/2000/svg">
<g clip-path="url(#clip0_870_3730)">
<path d="M11.365 49.4565C10.782 50.58 10.3265 53.1191 10.042 54.2872C16.6844 55.7902 20.0598 56.4647 27.6559 58.2627C27.9631 56.4461 28.1361 53.8277 28.2095 51.7087C24.4976 51.2792 18.0054 50.5906 11.365 49.4565Z" fill="#FFC19F"/>
<path d="M6.83889 54.0759C6.79681 54.3663 6.40812 54.6087 5.8144 55.0009C5.30016 55.3425 4.51276 55.832 4.34513 56.2662C4.16748 56.7323 4.65702 56.9021 5.3596 56.7323C6.51965 56.4473 9.11693 55.7081 10.3798 55.25C12.5837 54.6054 14.035 52.2833 13.3685 50.2495C12.3667 47.1996 11.7923 46.0775 11.1085 44.2262C10.9395 43.7694 10.1448 44.5179 10.1187 45.1838C10.0633 46.6096 10.4466 46.9732 10.3591 47.7017C10.273 48.4123 9.68193 48.4602 9.01541 48.2704C6.06017 46.4265 4.55951 45.0507 3.65257 45.5914C2.97604 46.1548 4.84068 47.6984 7.02321 49.3432C4.15145 48.5714 1.78058 48.1892 1.69109 48.963C1.58624 49.8806 3.79415 50.9461 6.23515 51.4375C4.07198 52.1348 1.9048 52.4158 1.99496 53.3687C2.07577 54.2278 6.95643 53.2582 6.83889 54.0759Z" fill="#FFC19F"/>
<path d="M60.486 46.9082C61.2206 47.9404 62.022 50.3957 62.4668 51.5097C56.0975 53.9151 52.8498 55.0485 45.5749 57.878C45.0185 56.1206 44.3781 53.4043 44.0107 51.316C47.7527 50.4689 54.1808 48.922 60.486 46.9082Z" fill="#FFC19F"/>
<path d="M65.6099 50.8645C65.6914 51.1462 66.1102 51.3306 66.7526 51.6389C67.3096 51.9053 68.1551 52.2822 68.3828 52.6904C68.6233 53.1266 68.1625 53.3637 67.4425 53.2898C66.2537 53.1679 63.579 52.7943 62.2647 52.5146C59.994 52.1817 58.2328 50.0813 58.6109 47.975C59.1785 44.8165 59.5926 43.6259 60.0133 41.6973C60.1169 41.2219 61.0084 41.8532 61.1266 42.5091C61.3791 43.9135 61.0498 44.3271 61.2375 45.0396C61.4212 45.7315 62.0129 45.6969 62.6473 45.4172C65.3187 43.1843 66.615 41.6148 67.5894 42.025C68.3374 42.4911 66.7052 44.2765 64.7718 46.2063C67.51 45.0456 69.804 44.3417 69.9997 45.0936C70.2315 45.9859 68.1918 47.3451 65.843 48.1715C68.0823 48.5637 70.2682 48.5424 70.3109 49.5033C70.3477 50.357 65.3795 50.07 65.6099 50.8645Z" fill="#FFC19F"/>
<path d="M47.2915 71.9997C46.862 67.3782 45.889 54.9521 45.4028 51.3361C42.0141 50.816 29.556 50.9472 27.115 51.5645C26.6869 55.9043 25.585 68.3964 25.585 71.9997H47.2915Z" fill="#FFC19F"/>
<path opacity="0.16" d="M41.8161 49.9418C41.8161 52.3298 38.921 54.2656 35.3493 54.2656C31.7776 54.2656 28.8818 52.3278 28.8818 49.9418C28.8818 47.5558 31.7776 45.6133 35.348 45.6133C38.9183 45.6133 41.8161 47.5518 41.8161 49.9418Z" fill="#440B02"/>
<path d="M7.45544 39.1736C9.16247 43.8085 14.0004 46.299 17.359 45.4586C20.7176 44.6182 20.9654 40.6287 19.8855 36.0997C18.8056 31.5708 15.2105 28.5748 11.8566 29.4278C7.27245 30.5972 5.85193 34.8165 7.45544 39.1736Z" fill="#F4B18C"/>
<path d="M11.6584 39.7493C12.1312 41.7351 13.901 42.9963 15.6114 42.5661C17.3217 42.1359 18.3262 40.1781 17.854 38.1923C17.3818 36.2065 15.6114 34.9459 13.901 35.3755C12.1906 35.805 11.1869 37.7635 11.6584 39.7493Z" fill="#E0956C"/>
<path d="M62.5656 33.4793C61.7942 38.3745 57.5413 41.82 54.0892 41.6941C50.6371 41.5683 49.6146 37.7126 49.7916 33.0524C49.9686 28.3923 52.9058 24.7057 56.3572 24.8482C61.0749 25.0387 63.2888 28.8777 62.5656 33.4793Z" fill="#F4B18C"/>
<path d="M58.3115 34.9443C58.2347 36.9874 56.7474 38.5909 54.9882 38.5257C53.2291 38.4604 51.864 36.7503 51.9395 34.7066C52.015 32.6629 53.5043 31.0613 55.2634 31.1259C57.0225 31.1905 58.3883 32.9013 58.3115 34.9443Z" fill="#E0956C"/>
<path d="M55.803 22.6239C58.4404 40.0525 49.4491 50.3844 37.1386 51.6749C24.8281 52.9655 12.4461 46.2416 11.6387 26.0868C11.2173 15.5312 17.2613 8.11143 31.6836 6.23552C44.871 4.52076 53.9805 10.5747 55.803 22.6239Z" fill="#FFC19F"/>
<path d="M23.9971 39.3311C24.0806 40.2095 22.8464 41.0559 21.2402 41.2217C19.634 41.3875 18.2642 40.8102 18.1808 39.9318C18.0973 39.0534 19.3315 38.2064 20.937 38.0406C22.5425 37.8748 23.9129 38.4528 23.9971 39.3311Z" fill="#FF8A8A"/>
<path d="M52.6817 36.5733C52.7652 37.451 51.5317 38.298 49.9255 38.4638C48.3193 38.6296 46.9495 38.0523 46.8654 37.1739C46.7812 36.2956 48.0168 35.4492 49.6223 35.2834C51.2278 35.1176 52.5982 35.6922 52.6817 36.5733Z" fill="#FF8A8A"/>
<path d="M39.8741 26.9942C38.65 29.3196 39.0834 31.6836 40.4498 32.4481C42.5095 33.6001 47.0816 33.4876 48.5622 31.3273C49.9968 29.235 48.838 25.8388 46.0083 24.6401C43.5326 23.5846 41.0582 24.744 39.8741 26.9942Z" fill="#F9FEFF"/>
<path d="M48.2479 25.4533C45.8143 22.3295 40.9363 24.0203 39.833 27.0729C41.0552 24.7488 43.6671 23.7925 45.9559 24.7641C46.6558 25.0628 47.2805 25.5127 47.7849 26.0813C48.2892 26.65 48.6607 27.3232 48.8724 28.0524C49.201 29.2138 49.0727 30.5716 48.479 31.4407C49.2076 30.836 50.0404 27.7501 48.2479 25.4533Z" fill="#602220"/>
<path d="M40.5608 28.3752C40.124 29.9401 41.0083 31.5716 42.5363 32.0132C44.0644 32.4547 45.6558 31.547 46.0926 29.9841C46.5294 28.4212 45.6445 26.7876 44.1171 26.3461C42.5897 25.9046 40.9976 26.8103 40.5608 28.3752Z" fill="#461D14"/>
<path d="M40.7665 28.093C40.7069 28.2992 40.7309 28.5205 40.8333 28.7092C40.9358 28.8979 41.1084 29.0389 41.3141 29.1019C41.4159 29.1306 41.5225 29.1387 41.6275 29.1259C41.7325 29.113 41.8339 29.0794 41.9257 29.027C42.0176 28.9746 42.098 28.9045 42.1624 28.8207C42.2267 28.737 42.2737 28.6413 42.3005 28.5392C42.3603 28.3329 42.3363 28.1115 42.2339 27.9227C42.1315 27.7338 41.9587 27.5927 41.7529 27.5297C41.651 27.5011 41.5444 27.4931 41.4394 27.506C41.3344 27.519 41.233 27.5526 41.1412 27.6051C41.0493 27.6575 40.9689 27.7277 40.9046 27.8115C40.8402 27.8952 40.7933 27.991 40.7665 28.093Z" fill="#FEFFFE"/>
<path d="M29.6042 28.0722C31.2558 30.0953 31.2919 32.5006 30.1024 33.5328C28.3092 35.0897 23.8086 35.9301 21.9373 34.1208C20.1254 32.3694 20.6016 28.8027 23.1394 27.0367C25.3567 25.4924 28.006 26.1144 29.6042 28.0722Z" fill="#F9FEFF"/>
<path d="M21.1016 28.3022C22.8775 24.7368 27.9852 25.3788 29.6595 28.1397C28.0092 26.118 25.2644 25.7237 23.212 27.1515C22.5847 27.5895 22.0612 28.1591 21.6782 28.8204C21.2953 29.4817 21.0622 30.2185 20.9954 30.9792C20.8999 32.1859 21.288 33.4898 22.0406 34.217C21.2098 33.7761 19.796 30.926 21.1016 28.3022Z" fill="#602220"/>
<path d="M23.8828 30.1316C23.4467 31.6965 24.3309 33.328 25.8583 33.7695C27.3857 34.211 28.9778 33.3034 29.4146 31.7404C29.8514 30.1775 28.9671 28.544 27.4391 28.1025C25.911 27.661 24.3196 28.5666 23.8828 30.1316Z" fill="#461D14"/>
<path d="M24.0888 29.8465C24.0291 30.0527 24.0531 30.2741 24.1557 30.4629C24.2583 30.6516 24.4312 30.7926 24.6371 30.8553C24.739 30.884 24.8455 30.8921 24.9505 30.8793C25.0555 30.8664 25.1569 30.8328 25.2488 30.7804C25.3406 30.728 25.4211 30.6579 25.4854 30.5741C25.5498 30.4904 25.5967 30.3947 25.6235 30.2926C25.6831 30.0863 25.659 29.8649 25.5565 29.676C25.4539 29.4872 25.2811 29.3461 25.0752 29.2831C24.9734 29.2545 24.8668 29.2465 24.7618 29.2594C24.6567 29.2724 24.5554 29.306 24.4635 29.3585C24.3717 29.4109 24.2913 29.4811 24.2269 29.5649C24.1626 29.6487 24.1156 29.7444 24.0888 29.8465Z" fill="#FEFFFE"/>
<path d="M47.6429 18.3166C47.5017 18.3311 47.3603 18.2919 47.2469 18.2067C45.7315 17.0793 43.0541 17.0041 41.0172 18.0343C40.9494 18.0685 40.8753 18.0889 40.7995 18.094C40.7236 18.0991 40.6475 18.0889 40.5757 18.0641C40.5039 18.0392 40.4379 18.0002 40.3815 17.9493C40.3252 17.8984 40.2797 17.8367 40.2478 17.7679C40.1811 17.6282 40.1712 17.4682 40.2201 17.3213C40.269 17.1745 40.373 17.0522 40.5103 16.9801C42.9386 15.7528 46.0588 15.8667 47.9234 17.2558C48.0469 17.3499 48.1291 17.4881 48.1526 17.6413C48.1762 17.7945 48.1393 17.9509 48.0496 18.0775C48.003 18.1441 47.9425 18.1999 47.8724 18.2412C47.8022 18.2824 47.7239 18.3081 47.6429 18.3166Z" fill="#AA3400"/>
<path d="M20.305 21.1887C20.2243 21.1973 20.1426 21.1883 20.0657 21.1623C19.9888 21.1363 19.9185 21.094 19.8596 21.0382C19.7469 20.9313 19.6801 20.7849 19.6734 20.6299C19.6667 20.4749 19.7205 20.3234 19.8235 20.2071C21.3796 18.4591 24.413 17.6993 27.031 18.3958C27.18 18.4379 27.3066 18.5366 27.3834 18.6707C27.4602 18.8048 27.4812 18.9637 27.4417 19.113C27.4241 19.1871 27.3919 19.2569 27.3469 19.3185C27.302 19.38 27.2451 19.4319 27.1797 19.4712C27.1144 19.5105 27.0418 19.5365 26.9662 19.5474C26.8907 19.5584 26.8137 19.5543 26.7398 19.5352C24.5439 18.9492 21.9366 19.5798 20.6717 21.0003C20.5776 21.1068 20.4467 21.1741 20.305 21.1887Z" fill="#AA3400"/>
<path d="M36.9815 34.3084C36.9331 34.3136 36.8844 34.3011 36.8446 34.2732C36.8048 34.2452 36.7765 34.2038 36.7651 34.1566C36.5781 33.45 35.9777 33.0445 35.2357 33.1217C34.4937 33.199 33.9668 33.7337 33.9388 34.4489C33.9365 34.5025 33.9131 34.553 33.8735 34.5894C33.8339 34.6257 33.7815 34.6449 33.7277 34.6427C33.674 34.6405 33.6233 34.6171 33.5868 34.5776C33.5504 34.5381 33.5312 34.4859 33.5334 34.4323C33.5708 33.5159 34.254 32.8074 35.195 32.7088C36.136 32.6103 36.9187 33.1484 37.1571 34.0467C37.1714 34.0995 37.1645 34.1557 37.1378 34.2035C37.1111 34.2513 37.0668 34.2868 37.0142 34.3024L36.9815 34.3084Z" fill="#C4735B"/>
<path d="M43.9844 37.8632C44.3377 41.4558 41.2181 45.1604 36.4463 45.6612C31.6745 46.1619 27.1171 43.8865 26.7031 39.6778C26.3498 36.0865 31.7233 36.1078 36.5519 36.1804C41.347 36.2523 43.6291 34.2718 43.9844 37.8632Z" fill="#5B0000"/>
<path d="M36.5645 36.1248C34.1963 36.0895 31.7039 36.0695 29.7979 36.4684C31.6111 38.1951 33.9165 38.7938 36.6013 38.6659C38.5273 38.576 41.3203 37.6417 42.1498 35.6406C40.9176 35.6446 39.0877 36.1614 36.5645 36.1248Z" fill="white"/>
<path d="M41.4956 43.6328C40.3035 42.5793 38.4862 41.7422 36.3645 41.4053C32.8309 40.8445 29.6706 41.8474 28.751 43.6907C30.6336 45.2889 33.5041 46.0361 36.4606 45.7258C38.4749 45.514 40.1953 44.7322 41.4956 43.6328Z" fill="#E27974"/>
<path d="M36.8918 4.72807C37.9663 4.09744 38.3076 3.10454 37.2998 1.39378C37.1883 3.84838 33.0256 3.34894 29.7665 4.07613C28.0968 4.44905 26.5681 4.91186 25.2364 5.52984C28.2618 3.01331 34.0334 3.34095 34.5236 0C32.9434 3.16647 25.1636 2.27413 21.5993 8.34338L21.6567 8.31541C21.4464 8.60268 21.2582 8.90544 21.0938 9.22107C23.9916 8.30409 25.9056 10.7181 30.2433 11.5025C35.4459 12.4435 42.2272 11.5158 43.9516 5.07102C42.0756 5.42063 40.036 5.52718 36.8918 4.72807Z" fill="#AA3400"/>
</g>
<defs>
<clipPath id="clip0_870_3730">
<rect width="72" height="72" fill="white"/>
</clipPath>
</defs>
</svg>
