<svg width="87" height="40" viewBox="0 0 87 40" fill="none" xmlns="http://www.w3.org/2000/svg">
<g clip-path="url(#clip0_210_2864)">
<path d="M83.5395 3.39624C80.1099 2.68998 76.5512 4.81396 75.2755 16.0623C75.2006 16.7374 75.136 17.4177 75.0895 18.0928C73.2688 15.787 70.7354 13.863 69.2969 13.11C69.2667 13.094 69.2419 13.0693 69.2259 13.039C69.2098 13.0087 69.2031 12.9743 69.2067 12.9401C69.2104 12.906 69.2241 12.8737 69.2462 12.8475C69.2682 12.8213 69.2976 12.8024 69.3305 12.7932C73.4625 11.6948 78.7619 6.84707 74.4439 3.06388C71.2493 0.259596 66.5853 3.97527 64.8498 10.5108C64.7853 10.7471 64.6561 10.8042 64.5167 10.7705C64.3772 10.7367 64.3126 10.6173 64.3566 10.3992C65.3508 5.4657 66.2625 1.1606 62.2621 0.454338C57.7479 -0.345403 55.1499 3.9571 54.2563 10.2434C52.7455 20.7439 54.5585 29.1983 59.5866 29.3722C64.4934 29.5488 64.8188 24.4699 63.8271 19.1496C63.7961 18.9782 63.8504 18.8665 63.9692 18.825C64.0019 18.8132 64.0366 18.8082 64.0712 18.8103C64.1059 18.8123 64.1398 18.8214 64.1709 18.8369C64.202 18.8524 64.2296 18.8741 64.2522 18.9006C64.2748 18.9271 64.2918 18.9579 64.3023 18.9912C66.8384 25.8149 72.0163 29.8188 75.6473 26.5212L75.7661 26.4069C76.3085 27.9441 77.1684 29.0399 78.4597 29.3956C82.1785 30.4212 84.8773 26.5394 86.3571 17.7111C87.7335 9.44103 86.9588 4.09991 83.5395 3.39624Z" fill="#836AEA"/>
<path d="M47.2214 1.09833C43.3321 0.900991 40.8994 5.56701 40.8968 15.8753C40.8949 17.2194 40.9898 18.5619 41.1809 19.8922C38.5596 18.9237 34.7762 19.5027 32.5191 20.1103C32.4887 20.1195 32.4569 20.1227 32.4253 20.1195C32.3938 20.1163 32.3632 20.1069 32.3352 20.0918C32.2788 20.0614 32.2367 20.0097 32.2182 19.9481C32.1997 19.8864 32.2063 19.8199 32.2366 19.7632C32.2669 19.7065 32.3183 19.6642 32.3796 19.6456C35.1791 18.8069 40.0291 17.3788 39.2775 14.1928C38.4563 10.7342 34.9286 11.2119 31.6617 11.9156C31.6052 11.9331 31.5441 11.9281 31.4912 11.9015C31.4383 11.8749 31.3976 11.8288 31.3776 11.7728C31.3638 11.7435 31.3561 11.7116 31.3552 11.6792C31.3543 11.6468 31.3601 11.6146 31.3722 11.5845C31.3844 11.5545 31.4026 11.5273 31.4258 11.5047C31.4489 11.4822 31.4765 11.4647 31.5067 11.4534C34.2933 10.7523 38.761 8.69846 38.9263 5.18272C39.0864 1.75266 35.5923 -1.8981 29.7274 1.10093C24.7302 3.65854 22.2639 11.1963 22.8011 15.8416C22.8166 15.9844 22.8346 16.1298 22.8553 16.2804C20.9184 14.6056 18.8343 13.3125 17.8607 12.8685C17.8341 12.8551 17.8111 12.8354 17.7937 12.8111C17.7764 12.7867 17.7652 12.7585 17.7611 12.7289C17.7571 12.6992 17.7602 12.669 17.7704 12.6409C17.7805 12.6127 17.7973 12.5875 17.8194 12.5673C19.059 11.4248 25.9905 5.39304 21.094 1.5761C17.3494 -1.34244 11.9338 2.45893 11.9338 10.4433C11.9336 10.4763 11.9265 10.5089 11.9132 10.539C11.8998 10.5691 11.8804 10.5961 11.8561 10.6183C11.8319 10.6405 11.8033 10.6574 11.7722 10.668C11.7411 10.6785 11.7082 10.6825 11.6756 10.6796C11.6181 10.684 11.5613 10.6654 11.5173 10.628C11.4734 10.5906 11.4458 10.5374 11.4405 10.4797C11.0222 4.42712 9.2015 1.74487 5.14952 2.22783C0.203991 2.81985 -0.570766 10.9055 0.320204 18.3499C0.955504 23.6546 3.21263 29.9591 8.388 29.3697C14.5525 28.6686 12.4503 20.5595 12.2618 17.8254C12.2573 17.7929 12.2599 17.7598 12.2693 17.7283C12.2787 17.6969 12.2947 17.6679 12.3163 17.6432C12.3379 17.6186 12.3645 17.5989 12.3943 17.5856C12.4241 17.5722 12.4564 17.5654 12.489 17.5657C12.5498 17.5646 12.6091 17.5851 12.6563 17.6236C12.7035 17.662 12.7358 17.716 12.7473 17.776C13.0882 21.6086 17.8194 30.899 24.7767 26.6718C25.4219 26.2973 25.9921 25.805 26.4579 25.2204C28.4981 27.8792 31.5145 29.8396 35.8221 29.4995C39.9387 29.1723 42.1287 27.7183 43.1255 26.0642C44.0242 27.6066 45.1915 28.64 46.5654 28.8607C50.9867 29.567 53.1431 25.2411 53.187 15.0367C53.2257 5.68905 51.9087 1.33462 47.2214 1.09833Z" fill="#836AEA"/>
<path d="M56.6424 25.9656C55.4938 25.9636 54.3711 26.3083 53.4194 26.9549C52.3863 26.2526 51.1673 25.8781 49.9201 25.8799C49.7264 25.8799 49.5301 25.8799 49.339 25.9085C48.6206 24.9762 47.6514 24.2704 46.5464 23.8749C45.4413 23.4793 44.2466 23.4106 43.1038 23.6767C41.961 23.9428 40.9181 24.5327 40.0985 25.3765C39.2789 26.2203 38.7171 27.2826 38.4795 28.4375C38.2858 28.4194 38.0922 28.409 37.8933 28.409C37.7797 28.409 37.666 28.409 37.5524 28.409C37.1949 27.4106 36.5717 26.53 35.7507 25.8633C34.9297 25.1966 33.9423 24.7693 32.8964 24.6281C31.8504 24.4868 30.7859 24.6369 29.819 25.0622C28.8521 25.4874 28.0198 26.1714 27.413 27.0395C26.8061 27.9077 26.448 28.9267 26.3776 29.9854C26.3072 31.0442 26.5272 32.102 27.0138 33.0436C27.5003 33.9853 28.2346 34.7745 29.1366 35.3254C30.0386 35.8762 31.0737 36.1675 32.1291 36.1675C32.2427 36.1675 32.3564 36.1675 32.4674 36.1675C32.8809 37.3242 33.6495 38.3188 34.6621 39.0075C35.6747 39.6962 36.8789 40.0434 38.1006 39.9989C39.3223 39.9543 40.4983 39.5204 41.4586 38.7599C42.419 37.9993 43.114 36.9514 43.4431 35.7676C43.7893 35.8292 44.1401 35.8604 44.4916 35.8611C44.6053 35.8611 44.7215 35.8611 44.8351 35.8611C45.343 36.5734 45.9933 37.1711 46.7443 37.616C47.4953 38.0608 48.3305 38.343 49.1963 38.4445C50.0621 38.5459 50.9395 38.4644 51.7721 38.2051C52.6047 37.9458 53.3743 37.5144 54.0315 36.9387C54.8081 37.3314 55.6629 37.5424 56.532 37.5559C57.4012 37.5695 58.2621 37.3852 59.0504 37.0169C59.8387 36.6486 60.534 36.1058 61.0841 35.4292C61.6343 34.7525 62.0251 33.9595 62.2274 33.1095C62.4296 32.2595 62.4381 31.3746 62.252 30.5208C62.066 29.6671 61.6904 28.8667 61.1532 28.1796C60.616 27.4925 59.9312 26.9364 59.1501 26.553C58.3689 26.1696 57.5117 25.9688 56.6424 25.9656Z" fill="#FF007B"/>
<path d="M40.0085 30.3798C40.0051 30.5173 39.9735 30.6525 39.9155 30.7771L38.5055 33.706C38.4552 33.843 38.3644 33.9612 38.2452 34.0446C38.1261 34.1281 37.9844 34.1729 37.8392 34.1729C37.694 34.1729 37.5522 34.1281 37.4331 34.0446C37.314 33.9612 37.2231 33.843 37.1729 33.706L36.4369 32.1169L35.7008 33.706C35.6506 33.843 35.5598 33.9612 35.4406 34.0446C35.3215 34.1281 35.1798 34.1729 35.0346 34.1729C34.8893 34.1729 34.7476 34.1281 34.6285 34.0446C34.5093 33.9612 34.4185 33.843 34.3683 33.706L32.9582 30.7771C32.9002 30.6525 32.8686 30.5173 32.8652 30.3798C32.8673 30.1927 32.9428 30.014 33.0754 29.8827C33.2079 29.7513 33.3867 29.678 33.5728 29.6787C33.7039 29.6763 33.833 29.7114 33.945 29.7799C34.057 29.8484 34.1474 29.9475 34.2056 30.0656L35.0681 31.852L35.7267 30.2448C35.7632 30.0829 35.8534 29.9383 35.9825 29.8347C36.1115 29.7311 36.2717 29.6747 36.4369 29.6747C36.602 29.6747 36.7622 29.7311 36.8912 29.8347C37.0203 29.9383 37.1105 30.0829 37.1471 30.2448L37.803 31.852L38.6682 30.0656C38.7264 29.9475 38.8167 29.8484 38.9287 29.7799C39.0407 29.7114 39.1698 29.6763 39.3009 29.6787C39.487 29.678 39.6658 29.7513 39.7984 29.8827C39.9309 30.014 40.0064 30.1927 40.0085 30.3798Z" fill="white"/>
<path d="M44.8635 31.9377C44.8805 32.4032 44.7588 32.8631 44.5139 33.2586C44.2691 33.654 43.9123 33.9668 43.4894 34.1569C43.0664 34.3469 42.5967 34.4056 42.1403 34.3254C41.684 34.2451 41.2619 34.0296 40.9283 33.7064C40.5947 33.3833 40.3647 32.9673 40.2679 32.5118C40.1711 32.0563 40.2118 31.5821 40.385 31.15C40.5581 30.718 40.8557 30.3479 41.2395 30.0871C41.6234 29.8263 42.076 29.6868 42.5393 29.6865C42.8394 29.6789 43.138 29.7313 43.4179 29.8407C43.6977 29.9501 43.9531 30.1143 44.1694 30.3237C44.3856 30.5331 44.5583 30.7836 44.6775 31.0607C44.7966 31.3378 44.8599 31.6359 44.8635 31.9377ZM41.7103 31.9377C41.7001 32.0525 41.7141 32.1682 41.7513 32.2772C41.7886 32.3862 41.8483 32.4861 41.9265 32.5704C42.0047 32.6546 42.0997 32.7214 42.2053 32.7663C42.3108 32.8112 42.4246 32.8332 42.5393 32.8309C42.7632 32.8138 42.9724 32.7122 43.125 32.5466C43.2776 32.381 43.3624 32.1635 43.3624 31.9377C43.3624 31.7119 43.2776 31.4945 43.125 31.3289C42.9724 31.1632 42.7632 31.0617 42.5393 31.0445C42.4248 31.0426 42.3111 31.0649 42.2057 31.11C42.1004 31.155 42.0055 31.2218 41.9274 31.306C41.8493 31.3901 41.7896 31.4899 41.7522 31.5987C41.7148 31.7075 41.7005 31.823 41.7103 31.9377Z" fill="white"/>
<path d="M48.5515 30.3798C48.5544 30.565 48.4853 30.744 48.359 30.8788C48.2326 31.0136 48.059 31.0935 47.8749 31.1016C47.3455 31.1795 47.1002 31.5041 47.1002 32.1247V33.4385C47.1002 33.6348 47.0226 33.823 46.8846 33.9618C46.7466 34.1006 46.5593 34.1785 46.3641 34.1785C46.1689 34.1785 45.9817 34.1006 45.8437 33.9618C45.7057 33.823 45.6281 33.6348 45.6281 33.4385V30.4265C45.6239 30.3294 45.6394 30.2324 45.6737 30.1415C45.7079 30.0505 45.7602 29.9676 45.8274 29.8976C45.8945 29.8277 45.9752 29.7722 46.0643 29.7345C46.1535 29.6969 46.2494 29.6779 46.3461 29.6787C46.4976 29.6759 46.6458 29.7231 46.768 29.8132C46.8903 29.9032 46.9797 30.0311 47.0227 30.1772C47.1279 30.0372 47.263 29.9227 47.4181 29.8423C47.5732 29.7618 47.7444 29.7175 47.9188 29.7125C48.0051 29.7104 48.0909 29.7266 48.1706 29.7598C48.2504 29.793 48.3223 29.8427 48.3819 29.9055C48.4415 29.9683 48.4873 30.0429 48.5165 30.1246C48.5458 30.2063 48.5577 30.2932 48.5515 30.3798Z" fill="white"/>
<path d="M49.0679 33.4333V29.0192C49.062 28.9185 49.0766 28.8176 49.1108 28.7228C49.1451 28.628 49.1982 28.5412 49.267 28.4678C49.3359 28.3944 49.4189 28.3359 49.511 28.296C49.6031 28.256 49.7023 28.2354 49.8027 28.2354C49.903 28.2354 50.0023 28.256 50.0944 28.296C50.1865 28.3359 50.2695 28.3944 50.3383 28.4678C50.4071 28.5412 50.4603 28.628 50.4945 28.7228C50.5287 28.8176 50.5433 28.9185 50.5374 29.0192V33.4333C50.5433 33.534 50.5287 33.6349 50.4945 33.7297C50.4603 33.8245 50.4071 33.9113 50.3383 33.9847C50.2695 34.0581 50.1865 34.1166 50.0944 34.1566C50.0023 34.1966 49.903 34.2172 49.8027 34.2172C49.7023 34.2172 49.6031 34.1966 49.511 34.1566C49.4189 34.1166 49.3359 34.0581 49.267 33.9847C49.1982 33.9113 49.1451 33.8245 49.1108 33.7297C49.0766 33.6349 49.062 33.534 49.0679 33.4333Z" fill="white"/>
<path d="M55.8987 29.0243V33.4385C55.9029 33.5344 55.8876 33.6301 55.8539 33.7199C55.8202 33.8098 55.7687 33.8917 55.7026 33.9609C55.6364 34.0301 55.5569 34.0851 55.469 34.1225C55.3811 34.1599 55.2865 34.179 55.191 34.1785C55.0406 34.1814 54.8933 34.1351 54.7713 34.0466C54.6493 33.9581 54.5591 33.8322 54.5144 33.6878C54.3666 33.853 54.1839 33.9828 53.9797 34.0677C53.7755 34.1527 53.5549 34.1905 53.3342 34.1785C52.1385 34.1785 51.2837 33.2489 51.2837 31.9351C51.2837 30.6212 52.1385 29.6761 53.3342 29.6761C53.7368 29.6566 54.1306 29.7985 54.4292 30.0707V29.0321C54.4233 28.9314 54.4379 28.8306 54.4721 28.7358C54.5063 28.641 54.5595 28.5542 54.6283 28.4808C54.6971 28.4074 54.7801 28.3489 54.8722 28.3089C54.9643 28.2689 55.0636 28.2483 55.1639 28.2483C55.2643 28.2483 55.3635 28.2689 55.4556 28.3089C55.5477 28.3489 55.6308 28.4074 55.6996 28.4808C55.7684 28.5542 55.8215 28.641 55.8558 28.7358C55.89 28.8306 55.9046 28.9314 55.8987 29.0321V29.0243ZM54.455 31.9377C54.4429 31.7742 54.3836 31.6178 54.2843 31.4877C54.185 31.3576 54.05 31.2596 53.896 31.2056C53.742 31.1516 53.5757 31.1441 53.4175 31.1839C53.2593 31.2237 53.1161 31.3091 53.0056 31.4296C52.895 31.5501 52.8218 31.7005 52.7951 31.8623C52.7684 32.024 52.7893 32.1901 52.8553 32.3401C52.9212 32.49 53.0293 32.6174 53.1662 32.7064C53.3031 32.7955 53.463 32.8423 53.626 32.8413C53.7413 32.8425 53.8554 32.8194 53.9612 32.7734C54.067 32.7275 54.162 32.6598 54.2402 32.5746C54.3183 32.4895 54.3778 32.3888 54.4148 32.2791C54.4518 32.1694 54.4655 32.053 54.455 31.9377Z" fill="white"/>
</g>
<defs>
<clipPath id="clip0_210_2864">
<rect width="87" height="40" fill="white"/>
</clipPath>
</defs>
</svg>
