<svg width="48" height="48" viewBox="0 0 48 48" fill="none" xmlns="http://www.w3.org/2000/svg">
<g clip-path="url(#clip0_870_2013)">
<path d="M23.9997 7.08954C28.4259 7.08954 32.027 10.7672 32.027 15.2881C32.027 19.809 28.4259 23.4873 23.9997 23.4873C19.5736 23.4873 15.9724 19.8096 15.9724 15.2887C15.9724 10.7678 19.5736 7.08954 23.9997 7.08954ZM23.9997 1.5C16.5443 1.5 10.5 7.67374 10.5 15.2887C10.5 22.9037 16.5443 29.0781 23.9997 29.0781C31.4551 29.0781 37.5 22.9043 37.5 15.2887C37.5 7.67314 31.4557 1.5 23.9997 1.5Z" fill="#F9437C"/>
<g style="mix-blend-mode:multiply" opacity="0.5">
<path d="M28.6431 2.3374C30.7754 3.52261 32.5553 5.27335 33.7952 7.40514C35.0351 9.53694 35.6891 11.9709 35.6883 14.4505C35.6883 22.0661 29.6446 28.2392 22.1886 28.2392C20.605 28.2417 19.0334 27.9591 17.5459 27.4044C19.5255 28.5072 21.7449 29.0834 23.9998 29.08C31.4557 29.08 37.5001 22.9063 37.5001 15.2907C37.5001 9.33995 33.8112 4.2709 28.6431 2.3374Z" fill="#F9437C"/>
</g>
<path d="M23.9999 46.5002C23.6405 46.5002 23.2847 46.4279 22.9528 46.2874C22.6208 46.147 22.3192 45.9411 22.0651 45.6816C21.811 45.4221 21.6095 45.114 21.472 44.7749C21.3344 44.4358 21.2637 44.0724 21.2637 43.7054V27.2145C21.2785 26.4833 21.5733 25.7872 22.0848 25.2754C22.5964 24.7637 23.2838 24.4771 23.9999 24.4771C24.7159 24.4771 25.4034 24.7637 25.9149 25.2754C26.4264 25.7872 26.7212 26.4833 26.736 27.2145V43.7054C26.736 44.0724 26.6653 44.4358 26.5278 44.7749C26.3903 45.114 26.1887 45.4221 25.9346 45.6816C25.6806 45.9411 25.3789 46.147 25.047 46.2874C24.715 46.4279 24.3592 46.5002 23.9999 46.5002Z" fill="#F9437C"/>
<g style="mix-blend-mode:multiply" opacity="0.5">
<path d="M26.7362 27.438V43.7054C26.7356 44.3447 26.5204 44.9644 26.1265 45.4613C25.7326 45.9581 25.1839 46.302 24.5718 46.4356C23.9597 46.5692 23.3213 46.4844 22.763 46.1954C22.2047 45.9063 21.7603 45.4305 21.5039 44.8473C21.882 45.2491 22.3691 45.5262 22.9026 45.6429C23.436 45.7597 23.9915 45.7109 24.4976 45.5027C25.0037 45.2945 25.4372 44.9364 25.7425 44.4745C26.0478 44.0126 26.2109 43.4681 26.2107 42.9108V28.8955C26.2107 27.5462 26.7362 27.438 26.7362 27.438Z" fill="#F9437C"/>
</g>
<path d="M31.9358 39.0881H16.0641C15.6479 39.0939 15.2347 39.0152 14.8485 38.8565C14.4623 38.6979 14.1108 38.4624 13.8145 38.1638C13.5181 37.8653 13.2828 37.5095 13.1222 37.1173C12.9616 36.725 12.8789 36.3041 12.8789 35.8789C12.8789 35.4537 12.9616 35.0328 13.1222 34.6406C13.2828 34.2483 13.5181 33.8926 13.8145 33.594C14.1108 33.2954 14.4623 33.06 14.8485 32.9013C15.2347 32.7426 15.6479 32.6639 16.0641 32.6697H31.9358C32.7616 32.6813 33.5498 33.0245 34.1298 33.6251C34.7098 34.2256 35.035 35.0353 35.035 35.8789C35.035 36.7225 34.7098 37.5322 34.1298 38.1328C33.5498 38.7334 32.7616 39.0765 31.9358 39.0881Z" fill="#F9437C"/>
<g style="mix-blend-mode:multiply" opacity="0.5">
<path d="M15.3125 38.0104H21.2633V39.0874H16.064C15.451 39.0876 14.8514 38.9046 14.3391 38.5609C13.8267 38.2172 13.424 37.7279 13.1807 37.1533C13.7591 37.7049 14.5212 38.0113 15.3125 38.0104Z" fill="#F9437C"/>
</g>
<g style="mix-blend-mode:multiply" opacity="0.5">
<path d="M35.0772 35.8787C35.0775 36.3001 34.9965 36.7175 34.8388 37.1069C34.681 37.4963 34.4497 37.8501 34.1579 38.148C33.8662 38.446 33.5198 38.6823 33.1386 38.8434C32.7574 39.0046 32.3488 39.0873 31.9362 39.087H26.8428V38.0106H31.1842C31.7053 38.0104 32.2181 37.8779 32.6766 37.625C33.1351 37.3721 33.5249 37.0067 33.8108 36.5617C34.0968 36.1168 34.2699 35.6062 34.3147 35.0759C34.3595 34.5457 34.2746 34.0123 34.0675 33.5239C34.3859 33.824 34.6399 34.1881 34.8137 34.5934C34.9875 34.9986 35.0772 35.4363 35.0772 35.8787Z" fill="#F9437C"/>
</g>
<g opacity="0.5">
<path d="M11.5495 15.0572C11.3812 15.0896 11.0505 14.2933 11.1576 12.9536C11.2304 12.1819 11.3999 11.4231 11.6619 10.6955C11.9758 9.81617 12.3739 8.97063 12.8505 8.17122C13.8985 6.42403 15.3313 5.26345 16.4052 4.60052C17.495 3.93939 18.2529 3.71581 18.347 3.87568C18.4477 4.04758 17.8698 4.56987 16.986 5.39267C16.1022 6.21548 14.9324 7.37606 14.0186 8.90266C13.0883 10.4719 12.4298 11.9913 12.1121 13.1273C11.7831 14.2638 11.7525 15.0319 11.5495 15.0572Z" fill="white"/>
</g>
<g opacity="0.5">
<path d="M21.4933 2.7678C21.5392 3.15246 21.1009 3.52329 20.5324 3.68316C19.964 3.84304 19.4009 3.74687 19.2497 3.39167C19.0984 3.03646 19.498 2.52198 20.1729 2.33506C20.8478 2.14815 21.4486 2.38615 21.4933 2.7678Z" fill="white"/>
</g>
<g opacity="0.5">
<path d="M26.5142 24.0595C26.4959 23.8594 26.9726 23.6658 27.6481 23.3148C28.3236 22.9638 29.2051 22.4295 29.9741 21.6241C30.7432 20.8188 31.2481 19.9052 31.5688 19.205C31.8895 18.5048 32.0719 18.0144 32.2684 18.0276C32.4449 18.0366 32.6179 18.5842 32.4979 19.4797C32.3849 20.3638 31.9189 21.5887 30.9545 22.599C29.99 23.6093 28.8037 24.1184 27.9411 24.2566C27.0679 24.4027 26.5271 24.2416 26.5142 24.0595Z" fill="white"/>
</g>
<g opacity="0.5">
<path d="M16.287 33.7799C16.3276 33.9716 16.2105 34.1717 16.0516 34.3749C15.8674 34.6007 15.6695 34.8144 15.4591 35.015C15.2553 35.2235 15.0392 35.419 14.8118 35.6004C14.6082 35.7542 14.4088 35.8672 14.2234 35.8204C14.038 35.7735 13.9127 35.5487 13.9292 35.1935C13.9457 34.8383 14.1322 34.3797 14.5029 34.0119C14.8736 33.644 15.3338 33.4673 15.6798 33.4625C16.0258 33.4577 16.2488 33.5948 16.287 33.7799Z" fill="white"/>
</g>
<g opacity="0.5">
<path d="M22.6515 44.9818C22.2984 45.108 21.6747 44.1963 21.5558 42.8932C21.4369 41.5902 21.8806 40.5751 22.249 40.6322C22.6279 40.6851 22.8091 41.6395 22.918 42.7616C23.0175 43.8843 23.0145 44.8568 22.6515 44.9818Z" fill="white"/>
</g>
<g style="mix-blend-mode:multiply" opacity="0.5">
<path d="M26.8423 38.0107C26.8423 38.0107 26.2109 38.0582 26.2109 39.0884H26.8417L26.8423 38.0107Z" fill="#F9437C"/>
</g>
<g style="mix-blend-mode:multiply" opacity="0.5">
<path d="M15.972 15.2888C15.972 10.7679 19.5732 7.08964 23.9994 7.08964C25.9951 7.08807 27.9193 7.84868 29.3941 9.22208C28.643 8.37502 27.7264 7.69814 26.7035 7.2351C25.6805 6.77205 24.5739 6.53311 23.4551 6.53369C19.0319 6.53369 15.4277 10.215 15.4277 14.7329C15.4272 15.8758 15.6613 17.0061 16.1147 18.0509C16.5681 19.0957 17.2309 20.0319 18.0604 20.799C16.7155 19.2928 15.9707 17.3274 15.972 15.2888Z" fill="#F9437C"/>
</g>
</g>
<defs>
<clipPath id="clip0_870_2013">
<rect width="27" height="45" fill="white" transform="translate(10.5 1.5)"/>
</clipPath>
</defs>
</svg>
