<svg width="72" height="72" viewBox="0 0 72 72" fill="none" xmlns="http://www.w3.org/2000/svg">
<mask id="mask0_870_3928" style="mask-type:alpha" maskUnits="userSpaceOnUse" x="3" y="0" width="66" height="72">
<rect x="3.60059" width="64.7997" height="72" fill="#D9D9D9"/>
</mask>
<g mask="url(#mask0_870_3928)">
<path d="M66.2073 43.1119C64.2396 43.2704 62.2781 41.6002 62.5673 39.9358C64.6509 37.2491 63.9277 36.6169 61.5756 31.2084C59.7907 27.1043 59.5526 16.7745 57.7117 13.0169C54.0603 3.35422 42.2058 1.17784 33.1711 2.30439C23.4605 3.51311 15.4213 7.39089 13.5737 16.3893C11.6464 25.7683 11.3345 31.2122 9.81859 34.3575C8.44466 37.2069 10.0529 38.293 10.4141 39.9839C9.58258 42.0165 7.56636 43.4533 6.24512 42.3659C6.24512 43.6876 7.85969 44.2578 8.74769 43.8832C9.17293 43.7036 9.51473 43.2872 9.58047 43.2645C9.11098 44.1343 8.11467 45.7 7.97391 46.8633C7.72104 48.957 9.05745 52.4656 12.3502 54.1999C11.1411 52.9777 9.57457 50.9269 10.1246 49.145C10.9101 52.5516 14.3863 56.2583 19.7079 55.7011C24.9191 56.4121 42.6015 57.408 47.0137 57.0531C51.4865 56.6932 60.6539 55.4301 62.8665 51.3753C62.8791 52.4011 62.4362 53.0531 61.9755 53.687C64.6897 51.4883 65.1786 49.405 64.8835 47.2139C64.6551 45.5256 63.3242 43.7816 62.7308 42.8249C64.1106 44.2966 65.0753 44.7868 66.2073 43.1119Z" fill="#AA3900"/>
<path d="M54.406 85.3171C52.3455 77.5691 49.5977 67.1339 49.3435 65.6353C49.2504 64.5631 48.4905 55.4252 47.7488 49.8089C41.4422 48.1079 29.6884 48.8324 23.9103 49.7975C23.0703 57.0676 22.8145 60.9732 22.2279 65.6593C21.9902 67.5596 19.8677 77.4051 18.0977 85.3171H54.406Z" fill="#F95006"/>
<path d="M27.5225 51.4839C27.5549 51.715 27.5181 51.9506 27.4166 52.1608C27.3151 52.3711 27.1536 52.5465 26.9524 52.6649C26.7512 52.7833 26.5195 52.8393 26.2864 52.826C26.0534 52.8126 25.8295 52.7305 25.6432 52.5899C25.4568 52.4493 25.3164 52.2566 25.2396 52.0362C25.1627 51.8158 25.153 51.5775 25.2116 51.3515C25.2702 51.1256 25.3946 50.9221 25.5688 50.7668C25.7431 50.6115 25.9595 50.5114 26.1907 50.4791C26.5005 50.4359 26.8149 50.5174 27.0646 50.7058C27.3143 50.8942 27.479 51.1741 27.5225 51.4839Z" fill="#8E1F09"/>
<path d="M46.6993 51.6306C46.7317 51.8617 46.6948 52.0972 46.5934 52.3073C46.4919 52.5175 46.3305 52.6928 46.1294 52.8112C45.9283 52.9296 45.6966 52.9857 45.4637 52.9725C45.2307 52.9592 45.0069 52.8772 44.8205 52.7368C44.6341 52.5964 44.4936 52.4039 44.4166 52.1836C44.3397 51.9633 44.3297 51.7251 44.3881 51.4992C44.4465 51.2732 44.5705 51.0697 44.7445 50.9142C44.9186 50.7588 45.1348 50.6584 45.3658 50.6258C45.5194 50.6042 45.6757 50.613 45.8258 50.6518C45.9759 50.6905 46.1169 50.7585 46.2408 50.8518C46.3646 50.9452 46.4689 51.062 46.5475 51.1956C46.6262 51.3292 46.6778 51.477 46.6993 51.6306Z" fill="#8E1F09"/>
<path opacity="0.3" d="M35.338 67.7138C40.0889 67.7629 44.8304 67.2823 49.4747 66.2809C49.4136 65.9981 49.3677 65.7713 49.3437 65.6348C40.8417 67.4799 31.3836 67.4892 22.228 65.6579C22.2061 65.8122 22.1677 66.0427 22.123 66.3082C26.5015 67.1861 30.9495 67.6716 35.338 67.7138Z" fill="white"/>
<path d="M43.0111 49.9668C43.0224 49.5909 42.9537 49.2293 42.8581 48.8744C38.9951 48.67 33.1968 48.6713 29.0678 49.0611C29.0387 49.2238 28.9717 49.3764 28.9667 49.5449C28.8794 52.453 31.9522 54.9067 35.8304 55.0238C39.7086 55.141 42.9225 52.8761 43.0111 49.9668Z" fill="#FFC19F"/>
<path d="M41.1028 41.889L41.0138 50.1006C40.9945 51.8665 38.7346 53.2741 35.9666 53.2442C33.1985 53.2143 30.9694 51.7577 30.9884 49.9923L31.0773 41.7803L41.1028 41.889Z" fill="#FFC19F"/>
<path opacity="0.19" d="M31.0195 39.0101C28.5173 41.143 28.7917 45.5738 31.6327 48.9062C34.4737 52.2386 38.8049 53.2113 41.3071 51.0779C43.8092 48.9445 43.5349 44.5147 40.6939 41.1818C37.8529 37.849 33.5216 36.8771 31.0195 39.0101Z" fill="#820303"/>
<path d="M12.5027 35.0806C13.6928 39.4182 18.046 42.118 21.3017 41.6717C24.5574 41.2254 25.158 37.6548 24.5549 33.4723C23.9518 29.2899 20.8208 26.2499 17.5664 26.7059C13.1184 27.3322 11.3846 31.0047 12.5027 35.0806Z" fill="#FFC19F"/>
<path d="M16.0655 35.8363C16.3369 37.7602 17.9317 39.1262 19.6289 38.8876C21.3261 38.6491 22.4808 36.8958 22.2094 34.9719C21.938 33.048 20.3441 31.6821 18.6482 31.9206C16.9522 32.1591 15.7954 33.9132 16.0655 35.8363Z" fill="#E0956C"/>
<path d="M60.4315 35.14C59.2515 39.481 54.9059 42.1909 51.6494 41.7522C48.3928 41.3134 47.7826 37.7454 48.3747 33.5608C48.9668 29.3762 52.0906 26.3295 55.3467 26.7788C59.7964 27.3933 61.5395 31.0603 60.4315 35.14Z" fill="#FFC19F"/>
<path d="M56.646 35.7875C56.38 37.7118 54.7886 39.0819 53.0915 38.8476C51.3943 38.6133 50.2336 36.863 50.5 34.9382C50.7663 33.0135 52.3573 31.6442 54.054 31.8781C55.7508 32.112 56.9119 33.8631 56.646 35.7875Z" fill="#E0956C"/>
<path d="M58.3684 21.2774C58.2879 36.2284 49.223 42.9046 36.5753 42.8368C23.9276 42.7689 13.8861 35.997 13.9683 21.0464C14.0505 6.09586 24.821 1.87417 35.9524 1.71824C47.3893 1.55808 58.4485 6.32681 58.3684 21.2774Z" fill="#AA3900"/>
<path d="M53.9474 16.6086C56.2262 23.689 54.2449 38.769 51.7284 41.6496C49.0585 44.7051 41.6457 48.3697 36.1972 48.4287C30.5316 48.4902 23.1141 44.9698 21.0444 41.6167C18.5953 37.6479 16.4813 24.1817 18.2674 17.9459C20.421 10.4213 27.7243 8.33045 36.6005 8.32034C44.9031 8.31233 51.9333 10.3492 53.9474 16.6086Z" fill="#FFC19F"/>
<path d="M21.2599 36.082C21.2014 36.9502 22.3608 37.7349 23.8489 37.8352C25.337 37.9355 26.5913 37.313 26.6499 36.4444C26.7084 35.5758 25.5486 34.7911 24.0605 34.6912C22.5723 34.5913 21.3173 35.2138 21.2599 36.082Z" fill="#FF9797"/>
<path d="M46.0708 36.527C46.1341 37.3948 47.3912 38.0105 48.879 37.9018C50.3667 37.7931 51.5214 37.0024 51.4582 36.1342C51.395 35.266 50.1374 34.6511 48.6501 34.7594C47.1628 34.8678 46.0076 35.658 46.0708 36.527Z" fill="#FF9797"/>
<path d="M42.5691 37.9138C42.2829 36.4231 39.9919 36.8091 36.2499 36.7843C36.0539 36.7843 35.2928 36.7843 35.0964 36.7843C31.3543 36.8091 29.0633 36.4231 28.7776 37.9138C28.2267 40.7839 31.8381 43.9216 35.64 43.9334H35.7058C39.5085 43.9216 43.1195 40.7839 42.5691 37.9138Z" fill="#701608"/>
<path d="M35.7058 43.9925H35.64C34.4073 43.9883 33.1294 43.6385 31.9401 42.9848L31.8672 42.9464L31.9287 42.8916C32.9162 42.0066 34.2467 41.5186 35.6741 41.5186C37.1016 41.5186 38.43 42.0058 39.4196 42.8908L39.4807 42.9456L39.4082 42.9839C38.2163 43.6385 36.9381 43.9866 35.7058 43.9925Z" fill="#DD6B5B"/>
<path d="M35.6734 38.6983C33.0604 38.6983 30.881 37.8878 30.6088 36.8118L30.5928 36.7461H40.7539L40.7379 36.8118C40.4636 37.8878 38.2863 38.6983 35.6734 38.6983Z" fill="white"/>
<path d="M37.3218 34.8665C37.273 34.8667 37.2257 34.8494 37.1885 34.8178C37.1513 34.7862 37.1265 34.7424 37.1187 34.6942C36.9994 33.9777 36.4322 33.5141 35.6736 33.5141C34.9149 33.5141 34.33 33.9874 34.2297 34.6908C34.2262 34.7179 34.2173 34.7441 34.2036 34.7678C34.1899 34.7914 34.1716 34.8122 34.1498 34.8287C34.128 34.8453 34.1032 34.8573 34.0767 34.8642C34.0502 34.8711 34.0227 34.8726 33.9956 34.8687C33.9685 34.8648 33.9425 34.8556 33.919 34.8416C33.8955 34.8276 33.875 34.809 33.8588 34.787C33.8425 34.765 33.8308 34.74 33.8243 34.7134C33.8178 34.6868 33.8166 34.6592 33.8209 34.6322C33.9498 33.7311 34.7114 33.1015 35.6752 33.1011C36.6391 33.1007 37.3762 33.7139 37.5296 34.6267C37.5386 34.6806 37.5258 34.7358 37.4943 34.7803C37.4627 34.8248 37.4148 34.8551 37.361 34.8644L37.3218 34.8665Z" fill="#C4735B"/>
<path d="M49.6809 20.7592C49.538 20.7411 49.4069 20.6707 49.313 20.5615C48.0646 19.121 45.4318 18.426 43.183 18.9495C43.0345 18.9782 42.8806 18.9483 42.7537 18.866C42.6268 18.7837 42.5368 18.6554 42.5025 18.508C42.4682 18.3607 42.4924 18.2058 42.57 18.0759C42.6475 17.9461 42.7724 17.8513 42.9183 17.8116C45.6013 17.1887 48.6635 18.0223 50.1976 19.7987C50.2749 19.8883 50.3232 19.9992 50.3361 20.1168C50.349 20.2343 50.326 20.3531 50.27 20.4573C50.214 20.5615 50.1277 20.6463 50.0225 20.7004C49.9174 20.7545 49.7982 20.7755 49.6809 20.7605V20.7592Z" fill="#6D1403"/>
<path d="M16.4039 18.3326C16.2813 15.7618 17.6564 9.2672 22.3754 6.63144C28.4595 3.23116 40.3873 1.41892 52.4813 8.7328C51.0353 15.1325 38.9704 17.5955 33.9518 17.279C35.5778 16.5124 37.7706 14.8675 37.7288 13.6457C35.477 15.4031 16.6846 24.2195 16.4039 18.3326Z" fill="#AA3900"/>
<path d="M21.841 21.0822C21.7231 21.093 21.6048 21.0678 21.5015 21.0099C21.3983 20.9519 21.3151 20.864 21.263 20.7578C21.2108 20.6515 21.1921 20.5319 21.2094 20.4148C21.2267 20.2977 21.2791 20.1886 21.3597 20.102C22.9612 18.3845 26.0492 17.6622 28.7064 18.3816C28.7812 18.4012 28.8513 18.4353 28.9127 18.4822C28.9742 18.529 29.0258 18.5875 29.0645 18.6544C29.1032 18.7212 29.1283 18.7951 29.1383 18.8717C29.1483 18.9483 29.143 19.0261 29.1228 19.1007C29.1026 19.1752 29.0678 19.2451 29.0204 19.3061C28.973 19.3671 28.9141 19.4182 28.8469 19.4563C28.7797 19.4944 28.7056 19.5188 28.6289 19.5282C28.5522 19.5375 28.4744 19.5315 28.4 19.5107C26.1727 18.9046 23.5142 19.501 22.2157 20.8981C22.1177 21.0034 21.9843 21.069 21.841 21.0822Z" fill="#6D1403"/>
<path d="M41.2941 27.8374C39.8523 29.9253 40.0277 32.2319 41.2844 33.1123C43.1788 34.4386 47.6639 34.8306 49.34 32.9286C50.963 31.086 50.1829 27.7144 47.5438 26.2557C45.2321 24.9779 42.6895 25.8166 41.2941 27.8374Z" fill="#F9FEFF"/>
<path d="M49.6498 27.2833C47.5965 24.0318 42.6457 25.1145 41.2461 27.9104C42.6866 25.8238 45.343 25.195 47.4802 26.3743C48.8006 27.1038 49.7383 28.3972 49.9882 29.8352C50.1872 30.9816 49.9216 32.2653 49.2473 33.0307C50.0228 32.5321 51.1594 29.6742 49.6498 27.2833Z" fill="#AD3C23"/>
<path d="M45.8646 32.2958C47.2173 31.5104 47.6772 29.7771 46.8918 28.4245C46.1064 27.0718 44.3732 26.6119 43.0205 27.3973C41.6678 28.1827 41.208 29.9159 41.9933 31.2686C42.7787 32.6213 44.512 33.0812 45.8646 32.2958Z" fill="#872C04"/>
<path d="M42.0528 28.5266C41.9939 28.6703 41.9789 28.8284 42.0098 28.9806C42.0407 29.1329 42.116 29.2726 42.2263 29.3821C42.3366 29.4916 42.4769 29.5659 42.6294 29.5956C42.7819 29.6253 42.9398 29.6092 43.0832 29.5491C43.2265 29.4891 43.3488 29.3879 43.4346 29.2584C43.5204 29.1289 43.5659 28.9768 43.5653 28.8214C43.5647 28.666 43.518 28.5143 43.4311 28.3854C43.3443 28.2566 43.2212 28.1564 43.0774 28.0975C42.8846 28.0187 42.6684 28.0196 42.4763 28.1001C42.2843 28.1805 42.1319 28.3339 42.0528 28.5266Z" fill="#FEFFFE"/>
<path d="M31.402 27.747C32.8055 29.861 32.588 32.1638 31.3148 33.021C29.3968 34.3123 24.9054 34.6225 23.2651 32.6902C21.6758 30.8181 22.5162 27.4612 25.1827 26.0515C27.5167 24.8174 30.0441 25.7012 31.402 27.747Z" fill="#F9FEFF"/>
<path d="M23.0583 27.0358C25.1702 23.8227 30.1003 24.9956 31.4485 27.8168C30.0464 25.704 27.4026 25.0272 25.2439 26.1668C23.9101 26.8727 22.9492 28.1476 22.6731 29.5805C22.4531 30.7227 22.6954 32.011 23.3554 32.7886C22.5892 32.2774 21.5048 29.3989 23.0583 27.0358Z" fill="#AD3C23"/>
<path d="M25.5873 28.6228C25.3755 29.1413 25.3221 29.711 25.4341 30.2599C25.546 30.8087 25.8182 31.3121 26.2161 31.7062C26.6141 32.1004 27.12 32.3677 27.6699 32.4743C28.2198 32.581 28.789 32.5222 29.3054 32.3053C29.8219 32.0885 30.2625 31.7234 30.5714 31.2562C30.8804 30.789 31.0439 30.2406 31.0412 29.6805C31.0385 29.1204 30.8698 28.5736 30.5564 28.1093C30.243 27.6451 29.799 27.2842 29.2805 27.0723C28.9362 26.9316 28.5675 26.8601 28.1956 26.8618C27.8237 26.8636 27.4557 26.9386 27.1128 27.0826C26.7698 27.2266 26.4586 27.4367 26.1969 27.701C25.9351 27.9653 25.728 28.2785 25.5873 28.6228Z" fill="#872C04"/>
<path d="M25.8183 28.3731C25.7594 28.517 25.7446 28.6751 25.7755 28.8275C25.8065 28.9798 25.882 29.1195 25.9924 29.229C26.1028 29.3384 26.2432 29.4127 26.3958 29.4423C26.5484 29.472 26.7064 29.4557 26.8498 29.3956C26.9931 29.3355 27.1155 29.2342 27.2012 29.1045C27.287 28.9749 27.3325 28.8227 27.3318 28.6673C27.3311 28.5118 27.2843 28.36 27.1973 28.2312C27.1104 28.1023 26.9872 28.0021 26.8433 27.9432C26.6503 27.8644 26.434 27.8653 26.2418 27.9459C26.0496 28.0266 25.8972 28.1802 25.8183 28.3731Z" fill="#FEFFFE"/>
<path d="M16.4635 10.8633C16.9941 10.1924 21.6343 10.5557 24.1891 10.9476C17.741 10.787 19.4824 17.7191 19.184 23.6818C18.9851 27.6658 18.0844 31.1259 15.8672 30.7622C16.0442 26.6273 16.0164 13.6302 16.4635 10.8633Z" fill="#AA3900"/>
<path d="M55.624 10.8633C55.093 10.1924 50.4528 10.5557 47.8984 10.9476C54.3466 10.787 52.6048 17.7191 52.9032 23.6818C53.1025 27.6658 54.0027 31.1259 56.22 30.7622C56.043 26.6273 56.0716 13.6302 55.624 10.8633Z" fill="#AA3900"/>
<path d="M16.8828 15.8099C20.0959 8.02142 26.3347 3.72345 37.2751 3.66108C46.2558 3.61008 53.2995 8.05851 56.8089 16.1542C52.0853 9.08179 45.7416 5.58543 36.6214 5.81133C28.27 6.01868 21.6953 9.09865 16.8828 15.8099Z" fill="#F49000"/>
<path d="M21.8679 10.6697C23.8909 10.4737 26.8545 10.1167 27.7834 9.16847C28.3696 8.57001 26.6657 5.61521 24.3275 5.21441C23.0909 5.00368 20.9175 7.02075 20.6187 9.05974C20.4657 10.0915 20.9036 10.7628 21.8679 10.6697Z" fill="#FFA10B"/>
<path d="M21.1374 11.599C20.5781 14.8442 19.8065 17.0033 18.7963 17.273C17.2002 17.6995 13.8231 15.4414 14.0781 13.6363C14.3331 11.8312 18.0267 9.72438 19.7782 9.94691C20.8744 10.0868 21.3174 10.5563 21.1374 11.599Z" fill="#FFA10B"/>
<g opacity="0.35">
<path d="M21.3633 9.70665C21.547 9.1006 22.3061 7.51004 22.9972 8.31122C23.9013 9.35938 21.9343 9.73278 21.3633 9.70665Z" fill="#C12400"/>
</g>
<g opacity="0.35">
<path d="M20.1993 10.686C19.5249 10.8883 17.4177 11.6309 18.5556 12.3997C19.7428 13.2004 20.1221 11.3578 20.1993 10.686Z" fill="#C12400"/>
</g>
<path d="M21.6736 9.68619C22.109 10.2303 22.112 10.9505 21.6804 11.2999C21.2488 11.6493 20.545 11.4866 20.1092 10.9421C19.6734 10.3976 19.6701 9.67776 20.1025 9.3288C20.5349 8.97983 21.2374 9.14167 21.6736 9.68619Z" fill="#FFA10B"/>
<path d="M44.286 76.9607C43.9332 77.1575 42.003 75.3659 41.0674 73.9304C44.804 70.2516 51.3996 65.9751 54.4177 59.6655C54.4177 59.6655 57.4791 63.6331 56.7845 66.9402C56.2312 69.5734 49.5971 73.9987 44.286 76.9607Z" fill="#FFC19F"/>
<path d="M57.7427 60.6445C55.756 62.5469 51.6945 65.3879 49.6087 66.1655C49.3559 65.9126 49.4098 65.8949 49.103 65.6817C48.808 61.9358 47.6798 50.0353 47.6279 49.7896C48.4409 49.9914 48.7486 50.1031 49.4431 50.3926C50.9574 52.1543 54.6219 56.4051 57.7427 60.6445Z" fill="#FF9700"/>
<path d="M27.2368 76.9623C27.5895 77.1592 29.5202 75.3676 30.4554 73.9321C26.7192 70.2532 20.1219 65.9768 17.1055 59.6655C17.1055 59.6655 14.0437 63.6331 14.7383 66.9402C15.2916 69.5751 21.9261 74.0004 27.2368 76.9623Z" fill="#FFC19F"/>
<path d="M13.8428 60.642C15.8295 62.5444 19.8914 65.3854 21.9746 66.163C22.2275 65.9101 22.4163 65.7917 22.5225 65.6792C22.8175 61.9333 23.9323 50.0606 23.9824 49.8145C23.1699 50.0163 22.8331 50.1006 22.1386 50.3902C20.6281 52.1518 16.9615 56.4026 13.8428 60.642Z" fill="#FF9700"/>
</g>
</svg>
