<svg width="48" height="48" viewBox="0 0 48 48" fill="none" xmlns="http://www.w3.org/2000/svg">
<g clip-path="url(#clip0_870_1982)">
<path d="M19.6348 20.5358C24.1052 20.5358 27.7424 24.2101 27.7424 28.7255C27.7424 33.2409 24.1052 36.9158 19.6348 36.9158C15.1643 36.9158 11.5271 33.2415 11.5271 28.7255C11.5271 24.2095 15.1643 20.5358 19.6348 20.5358ZM19.6348 14.9523C12.1048 14.9517 6 21.1187 6 28.7255C6 36.3323 12.1048 42.4999 19.6348 42.4999C27.1647 42.4999 33.2701 36.3329 33.2701 28.7255C33.2701 21.1181 27.1653 14.9517 19.6348 14.9517V14.9523Z" fill="#25AAF4"/>
<path d="M27.4462 23.6258C26.9056 23.6258 26.3769 23.4657 25.9256 23.1652C25.4742 22.8647 25.1199 22.4371 24.9067 21.9353C24.6935 21.4335 24.6306 20.8795 24.7259 20.342C24.8212 19.8044 25.0704 19.3069 25.4428 18.9111L37.2322 6.36919C37.737 5.83195 38.4324 5.51928 39.1653 5.49997C39.5283 5.49041 39.8895 5.55316 40.2285 5.68463C40.5674 5.81611 40.8774 6.01373 41.1407 6.26623C41.404 6.51872 41.6156 6.82114 41.7632 7.15621C41.9108 7.49128 41.9917 7.85245 42.0011 8.21909C42.0106 8.58573 41.9485 8.95066 41.8183 9.29305C41.6882 9.63544 41.4926 9.94859 41.2426 10.2146L29.4508 22.7565C29.1929 23.0316 28.8821 23.2507 28.5373 23.4002C28.1926 23.5496 27.8213 23.6264 27.4462 23.6258Z" fill="#25AAF4"/>
<path d="M39.2363 25.2866C38.8733 25.2867 38.5139 25.2145 38.1785 25.0743C37.8431 24.934 37.5384 24.7284 37.2817 24.4691C37.0251 24.2099 36.8214 23.9021 36.6825 23.5634C36.5436 23.2246 36.4721 22.8615 36.4721 22.4949V11.0835H25.1766C24.4535 11.0684 23.7652 10.7676 23.2592 10.2457C22.7531 9.72376 22.4697 9.0223 22.4697 8.29175C22.4697 7.5612 22.7531 6.85974 23.2592 6.33784C23.7652 5.81593 24.4535 5.51515 25.1766 5.5H39.2363C39.9692 5.5 40.6721 5.79413 41.1904 6.31768C41.7087 6.84124 41.9998 7.55133 41.9998 8.29175V22.4949C41.9998 23.2353 41.7087 23.9454 41.1904 24.4689C40.6721 24.9925 39.9692 25.2866 39.2363 25.2866Z" fill="#25AAF4"/>
<g opacity="0.5">
<path d="M7.33686 28.6395C7.16688 28.6714 6.83288 27.8759 6.94104 26.5382C7.01459 25.7678 7.18576 25.0102 7.45037 24.2838C7.76739 23.4054 8.16951 22.5608 8.65089 21.7622C9.70996 20.0169 11.1565 18.8576 12.2411 18.1954C13.3418 17.535 14.1073 17.3116 14.2024 17.4713C14.3034 17.6424 13.7204 18.1648 12.8271 18.9867C11.9339 19.8086 10.7542 20.9667 9.82882 22.4905C8.88861 24.0581 8.22417 25.5758 7.90265 26.7105C7.5728 27.847 7.54487 28.6143 7.33686 28.6395Z" fill="white"/>
</g>
<g opacity="0.5">
<path d="M17.3804 16.363C17.4267 16.7472 16.984 17.1176 16.4098 17.2773C15.8357 17.437 15.267 17.341 15.1142 16.9862C14.9615 16.6313 15.365 16.1174 16.0467 15.9307C16.7284 15.744 17.3352 15.9817 17.3804 16.363Z" fill="white"/>
</g>
<g opacity="0.5">
<path d="M22.0689 37.1331C22.0504 36.9326 22.5318 36.7392 23.2141 36.3892C23.8964 36.0392 24.7867 35.5049 25.5634 34.6998C26.3402 33.8947 26.8501 32.9827 27.174 32.2832C27.4979 31.5838 27.6822 31.0939 27.8807 31.1077C28.059 31.1161 28.2337 31.6637 28.113 32.5576C27.9983 33.4408 27.5276 34.6643 26.5536 35.6742C25.5795 36.684 24.3813 37.1913 23.5107 37.3294C22.6287 37.4753 22.0819 37.3144 22.0689 37.1331Z" fill="white"/>
</g>
<g opacity="0.5">
<path d="M38.6554 6.52445C38.6512 6.90989 35.5127 7.18967 31.6425 7.14884C27.7723 7.10802 24.6468 6.7604 24.6504 6.37676C24.654 5.99312 27.7931 5.71214 31.6633 5.75297C35.5335 5.79379 38.659 6.13901 38.6554 6.52445Z" fill="white"/>
</g>
<g opacity="0.5">
<path d="M38.5599 23.4337C38.5486 23.5682 38.2692 23.6949 37.8467 23.5358C37.4241 23.3767 36.9772 22.9276 36.7948 22.2948C36.6552 21.8021 36.6612 21.279 36.812 20.7897C36.9261 20.4366 37.0771 20.2403 37.2185 20.2493C37.3599 20.2583 37.4687 20.4895 37.5442 20.8263C37.6197 21.1631 37.6726 21.596 37.789 21.997C37.888 22.3283 38.0439 22.6395 38.2496 22.9162C38.4101 23.1401 38.5801 23.286 38.5599 23.4337Z" fill="white"/>
</g>
<g style="mix-blend-mode:multiply" opacity="0.4">
<path d="M31.0927 21.2632C31.8298 22.9858 32.2097 24.8427 32.2088 26.7194C32.2088 34.3262 26.104 40.4932 18.5734 40.4932C16.2929 40.4944 14.0485 39.9172 12.0462 38.8144C10.0439 37.7116 8.34774 36.1186 7.11328 34.1815C9.20527 39.074 14.0228 42.4997 19.6343 42.4997C27.1649 42.4997 33.2697 36.3326 33.2697 28.7253C33.2726 26.0777 32.5165 23.486 31.0927 21.2632Z" fill="#25AAF4"/>
</g>
<g style="mix-blend-mode:multiply" opacity="0.4">
<path d="M11.5268 28.7252C11.5268 24.2098 15.1634 20.5355 19.6339 20.5355C21.6 20.5342 23.499 21.2579 24.9744 22.5707C24.215 21.6927 23.2783 20.989 22.2274 20.5068C21.1765 20.0247 20.0357 19.7753 18.8815 19.7754C14.4116 19.7754 10.7744 23.4497 10.7744 27.9657C10.7743 29.1316 11.0212 30.284 11.4985 31.3456C11.9757 32.4071 12.6724 33.3531 13.5415 34.1202C12.242 32.6297 11.5256 30.7114 11.5268 28.7252Z" fill="#25AAF4"/>
</g>
<g style="mix-blend-mode:multiply" opacity="0.4">
<path d="M36.4717 13.3647V15.286L30.9749 21.1348C30.4959 20.3543 31.1003 19.2268 31.6405 18.6343L36.4717 13.3647Z" fill="#25AAF4"/>
</g>
<g style="mix-blend-mode:multiply" opacity="0.4">
<path d="M39.4065 5.50879C39.9291 5.68393 40.3838 6.02095 40.706 6.47199C41.0282 6.92303 41.2015 7.46515 41.2014 8.02136V21.4908C41.2013 22.036 41.0346 22.5679 40.7241 23.0138C40.4136 23.4597 39.9745 23.798 39.4666 23.9824C38.9587 24.1668 38.4069 24.1884 37.8864 24.0442C37.366 23.9 36.9023 23.597 36.5586 23.1767C36.7233 23.8366 37.121 24.413 37.677 24.7974C38.2329 25.1818 38.9088 25.3477 39.5773 25.2639C40.2459 25.1801 40.8611 24.8523 41.3072 24.3423C41.7533 23.8323 41.9995 23.1752 41.9995 22.4946V8.29153C41.9993 7.58137 41.7309 6.89804 41.2491 6.38093C40.7672 5.86383 40.1082 5.5519 39.4065 5.50879Z" fill="#25AAF4"/>
</g>
<g style="mix-blend-mode:multiply" opacity="0.4">
<path d="M18.2842 15.0195C23.3002 15.2489 25.1123 17.0092 25.832 17.3352C26.5517 17.6612 27.004 17.2487 27.004 17.2487L27.0676 17.1815C24.857 15.7233 22.2733 14.9484 19.6333 14.9517C19.1792 14.9517 18.7287 14.9751 18.2842 15.0195Z" fill="#25AAF4"/>
</g>
</g>
<defs>
<clipPath id="clip0_870_1982">
<rect width="36" height="37" fill="white" transform="translate(6 5.5)"/>
</clipPath>
</defs>
</svg>
