<svg width="72" height="72" viewBox="0 0 72 72" fill="none" xmlns="http://www.w3.org/2000/svg">
<g clip-path="url(#clip0_870_3861)">
<mask id="mask0_870_3861" style="mask-type:alpha" maskUnits="userSpaceOnUse" x="-6" y="0" width="84" height="72">
<rect x="-5.14258" width="82.2857" height="72" fill="#D9D9D9"/>
</mask>
<g mask="url(#mask0_870_3861)">
<path d="M8.12268 49.9395C7.54528 51.0875 7.11631 53.6748 6.84082 54.8619C13.5722 56.3112 16.99 56.9577 24.6925 58.6968C24.9831 56.848 25.1328 54.6855 25.1831 52.5317C21.4243 52.1373 14.8477 51.0157 8.12268 49.9395Z" fill="#FFC19F"/>
<path d="M9.89746 56.2376C11.4976 56.5829 23.4306 58.8702 26.1729 59.6515C26.1729 59.6515 27.0535 55.46 26.812 52.0385C25.1074 51.9049 13.2877 50.3926 11.4837 49.9478C10.5214 51.7789 9.89746 56.2376 9.89746 56.2376Z" fill="#1BA6D2"/>
<path d="M3.37678 54.5218C3.33904 54.8079 2.96039 55.0486 2.38425 55.443C1.88107 55.7846 1.12629 56.2748 0.961499 56.7033C0.791675 57.162 1.27347 57.3246 1.95906 57.1481C3.09122 56.8545 5.62475 56.0984 6.85629 55.6359C9.00362 54.9768 10.4012 52.6768 9.72569 50.6844C8.71932 47.6964 8.13689 46.5987 7.44627 44.7853C7.27645 44.3392 6.50658 45.0839 6.48771 45.738C6.44997 47.1419 6.82987 47.4948 6.75188 48.2118C6.67388 48.9289 6.09774 48.968 5.4436 48.7865C2.52891 47.0071 1.04075 45.6712 0.16018 46.2131C-0.495216 46.7752 1.34769 48.2723 3.50132 49.8678C0.682233 49.1381 -1.63996 48.7941 -1.72172 49.5502C-1.81481 50.4513 0.358938 51.4746 2.75409 51.9333C0.644494 52.6428 -1.47391 52.9415 -1.37453 53.8829C-1.28396 54.7235 3.48245 53.7153 3.37678 54.5218Z" fill="#FFC19F"/>
<path d="M13.9449 49.9837L10.8701 49.3916L9.49319 56.5683L12.568 57.1604L13.9449 49.9837Z" fill="#037B9F"/>
<path d="M48.2969 75.3371C48.0177 71.1582 46.6176 55.5994 45.8955 51.7935C42.1141 51.239 28.4527 51.3776 25.743 52.1161C25.3732 57.7872 24.8511 68.7512 24.4121 75.3409C27.4438 77.4972 40.2032 78.5734 48.2969 75.3371Z" fill="#1BA6D2"/>
<path d="M32.4492 46.4629L32.5197 52.6884C32.5348 54.0268 34.3764 55.0917 36.6307 55.0652C38.8849 55.0388 40.7027 53.931 40.6876 52.5952L40.6171 46.3696L32.4492 46.4629Z" fill="#FFC19F"/>
<path d="M32.5498 44.6584L32.6194 50.5037C32.6343 51.7604 34.4536 52.7602 36.6805 52.7354C38.9074 52.7105 40.7031 51.6704 40.6881 50.4162L40.6186 44.5708L32.5498 44.6584Z" fill="#E1A486"/>
<path d="M62.5446 63.0573C62.2402 64.3062 60.8929 66.5557 60.3319 67.6358C54.271 64.3592 51.2507 62.6352 44.2627 58.9528C45.3614 57.2075 46.5703 55.5343 47.8818 53.9434C50.9978 56.0845 56.7291 59.506 62.5446 63.0573Z" fill="#FFC19F"/>
<path d="M57.1167 66.6969C55.6751 65.9194 45.112 59.9056 42.5244 58.7172C42.5244 58.7172 43.5031 54.2433 45.8995 51.7935C47.2833 52.8016 58.3256 60.0454 59.9886 60.8785C59.5295 62.8973 57.1167 66.6969 57.1167 66.6969Z" fill="#1BA6D2"/>
<path d="M68.9754 69.0378C67.6873 68.414 65.8796 67.2647 62.1535 65.6087C61.7283 65.4184 60.1471 66.8463 60.6062 66.9736C63.2781 67.7121 67.681 70.7303 68.9754 69.0378Z" fill="#E0956C"/>
<path d="M70.7527 67.6636C69.4659 67.0334 66.7273 64.9137 62.776 64.3718C62.2892 64.3038 60.9218 65.8249 61.381 65.9522C64.0478 66.6894 69.652 69.0372 70.7527 67.6636Z" fill="#E0956C"/>
<path d="M72.0003 65.3439C70.7121 64.72 63.1002 62.434 59.1553 61.8921C58.6684 61.8253 57.579 65.2027 58.0571 65.7988C58.2936 67.6287 61.2196 68.4138 63.2776 71.5543C63.6336 72.0962 64.1657 71.1762 64.2072 70.8738C64.3142 70.0785 64.0663 69.892 63.6789 67.9891C63.4424 66.8297 64.611 66.0647 65.4111 65.9336C68.8717 65.9173 71.1864 66.531 72.0003 65.3439Z" fill="#FFC19F"/>
<path d="M54.4806 65.6635L57.2041 67.2109L60.8023 60.8552L58.0788 59.3077L54.4806 65.6635Z" fill="#037B9F"/>
<path d="M60.5847 33.9385C59.6967 38.8004 55.403 41.0224 53.0483 40.3253C51.0046 39.7214 51.2065 35.9609 51.7542 33.3526C52.2853 30.8203 53.1848 28.2731 55.7191 27.6605C58.6946 26.9399 61.2788 30.1409 60.5847 33.9385Z" fill="#FFC19F"/>
<path d="M57.4047 34.5221C57.1114 36.7429 54.9739 38.2751 53.5981 37.9719C52.8858 37.816 53.042 36.6264 53.2019 34.96C53.3811 33.0867 53.7716 31.5962 55.0514 31.2967C56.4381 30.9732 57.6497 32.6581 57.4047 34.5221Z" fill="#E0956C"/>
<path d="M12.1879 36.1237C13.5117 40.8772 17.9867 42.7108 20.2687 41.8046C22.2504 41.0188 21.7128 37.2925 20.9293 34.744C20.172 32.2686 19.0462 29.8105 16.4677 29.4312C13.4404 28.9769 11.1543 32.4026 12.1879 36.1237Z" fill="#FFC19F"/>
<path d="M15.4077 36.4186C15.8991 38.6026 18.1654 39.9342 19.5079 39.5113C20.2037 39.2915 19.9413 38.1212 19.6316 36.4748C19.2837 34.6253 18.7626 33.1765 17.4592 32.9939C16.0493 32.7964 14.995 34.5842 15.4077 36.4186Z" fill="#E0956C"/>
<path d="M54.0352 15.5889C51.8342 9.23891 42.5062 5.88783 35.1451 6.25239C27.4543 6.63464 18.7755 10.768 17.1697 17.2536C15.844 22.6063 17.6199 37.2014 20.7936 42.1838C23.0745 45.7647 28.5827 50.3722 37.0986 49.9974L37.1511 49.9944C45.6615 49.6021 50.7323 44.5177 52.6806 40.7457C55.3834 35.4971 55.8453 20.8012 54.0352 15.5889Z" fill="#FFC19F"/>
<path d="M34.9301 34.9726C34.9749 34.9693 35.017 34.9504 35.0491 34.9191C35.0813 34.8878 35.1014 34.8462 35.1059 34.8016C35.13 34.4867 35.2711 34.1922 35.5014 33.9761C35.7317 33.76 36.0345 33.6378 36.3503 33.6337C37.0364 33.5999 37.5793 34.0162 37.6992 34.6688C37.7038 34.6934 37.7131 34.7168 37.7268 34.7378C37.7404 34.7587 37.7581 34.7767 37.7788 34.7907C37.7995 34.8048 37.8227 34.8145 37.8472 34.8195C37.8717 34.8244 37.897 34.8245 37.9215 34.8196C37.9708 34.8084 38.0137 34.7782 38.0409 34.7356C38.0681 34.693 38.0774 34.6413 38.0668 34.5919C37.9807 34.2022 37.7596 33.8555 37.4426 33.6131C37.1255 33.3708 36.733 33.2483 36.3344 33.2675C35.9358 33.2867 35.5568 33.4462 35.2644 33.7179C34.9721 33.9896 34.7853 34.3559 34.7371 34.752C34.7305 34.802 34.744 34.8526 34.7746 34.8927C34.8053 34.9327 34.8505 34.9591 34.9005 34.9659L34.9301 34.9726Z" fill="#C4735B"/>
<path d="M50.4489 21.6554C50.3199 21.6332 50.204 21.5629 50.1246 21.4587C49.0559 20.068 45.751 19.156 43.4494 19.5998C43.3806 19.6125 43.31 19.6114 43.2416 19.5967C43.1732 19.582 43.1085 19.5538 43.051 19.514C42.9936 19.4741 42.9446 19.4232 42.9068 19.3643C42.8691 19.3054 42.8434 19.2396 42.8312 19.1708C42.8065 19.0311 42.8356 18.8872 42.9128 18.7682C42.9899 18.6492 43.1093 18.5638 43.2469 18.5294C45.7786 17.8376 49.6214 19.0634 50.9441 20.777C51.032 20.891 51.0726 21.0344 51.0576 21.1775C51.0426 21.3206 50.9732 21.4525 50.8636 21.5458C50.8068 21.5935 50.7402 21.628 50.6685 21.6469C50.5968 21.6659 50.5219 21.6688 50.4489 21.6554Z" fill="#772400"/>
<path d="M21.1122 22.9801C21.2383 22.9452 21.347 22.8649 21.4175 22.7546C22.3619 21.2748 25.5669 20.0669 27.8983 20.3014C27.9681 20.3076 28.0384 20.2999 28.1052 20.2788C28.172 20.2576 28.234 20.2235 28.2875 20.1783C28.341 20.1331 28.385 20.0777 28.417 20.0154C28.449 19.953 28.4683 19.885 28.4739 19.8152C28.4861 19.6736 28.4441 19.5327 28.3564 19.4209C28.2687 19.3092 28.1418 19.2349 28.0014 19.2131C25.4179 18.7531 21.7016 20.3203 20.5389 22.1453C20.4615 22.2667 20.4338 22.4132 20.4615 22.5545C20.4892 22.6957 20.5703 22.8209 20.6878 22.9041C20.7488 22.9467 20.8184 22.9756 20.8916 22.9887C20.9649 23.0018 21.0401 22.9989 21.1122 22.9801Z" fill="#772400"/>
<path d="M46.472 36.7385C46.5645 37.5023 47.8291 37.9736 49.294 37.7967C50.7589 37.6197 51.8728 36.8523 51.7801 36.0909C51.6874 35.3294 50.423 34.8558 48.9569 35.0325C47.4908 35.2093 46.3784 35.9745 46.472 36.7385Z" fill="#FF8A8A"/>
<path d="M26.6585 37.6332C26.6339 38.4018 25.4176 38.9873 23.942 38.9421C22.4664 38.8968 21.2896 38.2356 21.3131 37.4669C21.3365 36.6982 22.548 36.111 24.0296 36.1581C25.5111 36.2051 26.6819 36.8645 26.6585 37.6332Z" fill="#FF8A8A"/>
<path d="M34.3649 3.44562L34.3361 3.4426C21.5905 4.8135 16.8536 11.2214 15.3326 15.7606C14.0345 19.6323 14.1944 23.6833 15.3977 29.4139C15.9688 29.3803 16.53 29.574 16.9588 29.9526C17.8752 30.7226 18.4893 32.0135 18.7088 32.4688C18.7211 30.9715 17.9977 28.1268 17.8074 26.3727C17.5141 23.6764 17.3869 20.4497 19.2536 17.0165C21.5834 12.732 25.2237 9.97757 34.641 9.55269L34.3649 3.44562Z" fill="#84220F"/>
<path d="M34.3351 3.4451L35.3953 3.39827C48.2118 3.61111 53.5059 9.56727 55.4307 13.9513C57.0711 17.6874 57.1767 21.689 56.5659 27.5672C55.9277 27.5963 55.6277 27.7823 55.2832 28.2198C54.7691 28.8728 54.3761 29.9234 54.074 30.2682C54.0571 29.3629 54.0569 28.4023 54.0513 27.4241C53.9525 24.2623 53.9332 19.2751 51.6387 15.5567C49.0114 11.2947 45.058 9.08451 35.6418 9.50952L34.3756 5.13374L34.3351 3.4451Z" fill="#84220F"/>
<path d="M41.9242 43.0112C40.8102 42.1804 36.704 41.7188 36.704 41.7188C36.704 41.7188 32.6569 42.5482 31.6222 43.4758C32.9757 44.4676 34.7854 45.0215 36.7423 44.9009C36.7784 44.9047 36.8112 44.8924 36.8468 44.8888C36.8824 44.8852 36.9165 44.8961 36.9522 44.8913C38.9118 44.8379 40.6662 44.123 41.9242 43.0112Z" fill="#EA7063"/>
<path d="M36.5072 37.392C36.4879 37.3957 36.4681 37.3965 36.4486 37.3944C32.5689 37.4143 29.526 36.8188 29.5165 39.4725C29.5057 42.7175 32.8653 45.0671 36.7372 44.8313L36.9495 44.822C40.8269 44.7083 43.9625 42.065 43.6584 38.8344C43.4104 36.1926 40.3719 37.0633 36.5072 37.392Z" fill="#701608"/>
<path d="M41.4854 43.2761C40.6686 42.123 38.818 41.3682 36.6962 41.4629C34.5744 41.5577 32.7969 42.4815 32.0893 43.7068C33.4843 44.5504 35.1057 44.9429 36.7321 44.8306L36.9444 44.8213C38.5814 44.7879 40.1678 44.2481 41.4854 43.2761Z" fill="#EA7063"/>
<path d="M40.6423 33.8334C40.6423 33.8334 47.1374 35.592 49.4244 32.1106C52.2137 27.8681 47.5155 24.827 44.5947 25.5934C41.8912 26.3025 39.5174 28.7802 40.6423 33.8334Z" fill="#F9FEFF"/>
<path d="M49.6711 26.8449C48.418 25.4058 46.8021 25.007 45.0793 25.2577C43.3194 25.5142 41.5839 26.8493 41.1315 28.1657C42.0173 26.6651 43.6328 26.0583 44.6431 25.7925C46.2588 25.3703 48.4222 26.0037 49.4434 27.4307C50.3549 28.6993 50.3703 30.6634 49.3462 32.2199C50.5927 31.1373 50.9775 28.3443 49.6711 26.8449Z" fill="#773220"/>
<path d="M47.3645 29.0907C47.5988 29.6101 47.6739 30.1872 47.5802 30.7492C47.4865 31.3111 47.2283 31.8327 46.8381 32.2479C46.448 32.6631 45.9435 32.9533 45.3885 33.0818C44.8334 33.2103 44.2527 33.1713 43.7198 32.9698C43.1869 32.7683 42.7258 32.4132 42.3946 31.9496C42.0635 31.486 41.8773 30.9346 41.8596 30.3651C41.8418 29.7957 41.9933 29.2338 42.2949 28.7504C42.5966 28.2671 43.0347 27.884 43.554 27.6497C44.2505 27.3358 45.043 27.3113 45.7576 27.5815C46.4721 27.8517 47.0501 28.3945 47.3645 29.0907Z" fill="#63190D"/>
<path d="M43.8449 28.791C43.91 28.9351 43.9309 29.0954 43.905 29.2514C43.879 29.4074 43.8074 29.5522 43.6991 29.6675C43.5908 29.7828 43.4508 29.8634 43.2967 29.8991C43.1426 29.9348 42.9814 29.924 42.8334 29.8681C42.6855 29.8122 42.5575 29.7136 42.4655 29.5849C42.3736 29.4561 42.3219 29.3031 42.317 29.145C42.3122 28.9869 42.3543 28.8309 42.438 28.6967C42.5218 28.5625 42.6435 28.4562 42.7877 28.3912C42.9809 28.3042 43.2008 28.2974 43.399 28.3723C43.5973 28.4473 43.7576 28.5979 43.8449 28.791Z" fill="#FEFFFE"/>
<path d="M32.1265 34.2126C32.1265 34.2126 25.8172 36.5478 23.2246 33.2876C20.0655 29.3135 24.4685 25.863 27.4474 26.362C30.2038 26.8292 32.7912 29.0833 32.1265 34.2126Z" fill="#F9FEFF"/>
<path d="M22.5033 28.0704C23.6221 26.525 25.1958 25.9818 26.9334 26.0764C28.7097 26.1737 30.5651 27.3469 31.123 28.6173C30.1065 27.2029 28.4422 26.7444 27.4111 26.5709C25.7703 26.2946 23.6714 27.1216 22.7792 28.6361C21.9861 29.9824 22.1478 31.94 23.3068 33.3972C21.9727 32.4292 21.3374 29.6825 22.5033 28.0704Z" fill="#773220"/>
<path d="M25.0038 30.1006C24.8175 30.639 24.795 31.2205 24.9393 31.7717C25.0835 32.3229 25.3879 32.8189 25.814 33.197C26.2402 33.5752 26.7688 33.8185 27.3332 33.8962C27.8976 33.9739 28.4724 33.8824 28.9848 33.6335C29.4973 33.3845 29.9244 32.9892 30.2122 32.4975C30.4999 32.0058 30.6355 31.4398 30.6016 30.8711C30.5677 30.3024 30.3659 29.7565 30.0218 29.3025C29.6777 28.8484 29.2067 28.5066 28.6683 28.3203C28.3108 28.1965 27.9324 28.1444 27.5547 28.1669C27.1771 28.1894 26.8076 28.2861 26.4673 28.4514C26.127 28.6167 25.8226 28.8475 25.5715 29.1304C25.3204 29.4134 25.1274 29.7431 25.0038 30.1006Z" fill="#63190D"/>
<path d="M25.2896 29.6288C25.2377 29.7783 25.2314 29.9397 25.2713 30.0927C25.3112 30.2458 25.3956 30.3835 25.5138 30.4886C25.632 30.5937 25.7787 30.6613 25.9354 30.683C26.0921 30.7047 26.2516 30.6794 26.3939 30.6104C26.5362 30.5413 26.6549 30.4317 26.7348 30.2952C26.8148 30.1587 26.8525 30.0016 26.8431 29.8438C26.8338 29.6859 26.7779 29.5343 26.6824 29.4082C26.5869 29.2822 26.4562 29.1872 26.3067 29.1354C26.1064 29.0664 25.8869 29.0795 25.6962 29.172C25.5056 29.2645 25.3594 29.4288 25.2896 29.6288Z" fill="#FEFFFE"/>
<path d="M44.7024 4.98229C38.074 2.69964 32.7514 3.13804 28.1353 4.70454C25.04 6.29065 25.6496 12.1011 22.2789 14.8437C24.1908 16.1964 28.9801 16.0956 31.1014 15.3911C34.8281 14.1541 36.9521 12.867 39.2238 10.4126C38.115 12.8832 36.9712 14.6324 34.8011 15.9304C40.3165 15.7612 41.7885 10.4031 43.3409 10.2487C45.5778 10.0288 49.6075 12.3332 51.0871 14.5903C49.9875 9.36605 45.7445 5.34038 44.7024 4.98229Z" fill="#84220F"/>
</g>
</g>
<defs>
<clipPath id="clip0_870_3861">
<rect width="72" height="72" fill="white"/>
</clipPath>
</defs>
</svg>
